<?xml version="1.0" encoding="utf-8"?>
<!-- Generator: Adobe Illustrator 24.2.1, SVG Export Plug-In . SVG Version: 6.00 Build 0)  -->
<svg version="1.1" id="Layer_1" xmlns="http://www.w3.org/2000/svg" xmlns:xlink="http://www.w3.org/1999/xlink" x="0px" y="0px"
	 viewBox="0 0 3000 3000" style="enable-background:new 0 0 3000 3000;" xml:space="preserve">
<style type="text/css">
	.st0{fill:#FFFFFF;}
	.st1{fill:#ECF3FE;}
	.st2{fill:#B7CAE5;}
	.st3{fill:#92AFCC;}
	.st4{opacity:0.2;fill:#D4E3F4;}
	.st5{fill:#D4E3F4;}
	.st6{fill:#F9F9F9;}
	.st7{fill:#F9C067;}
	.st8{fill:#4076A3;}
	.st9{fill:#27597C;}
	.st10{fill:#FCFCFC;}
	.st11{opacity:0.41;fill:#F2960F;}
	.st12{fill:#E5A43C;}
	.st13{fill:#326497;}
	.st14{fill:#4075A0;}
	.st15{opacity:0.2;}
	.st16{fill:#F4B545;}
	.st17{opacity:0.2;fill:#606060;}
	.st18{opacity:0.3;fill:#184B68;}
	.st19{fill:#FDC8AA;}
	.st20{fill:#9FB8D6;}
	.st21{fill:#D7E3F4;}
	.st22{fill:#FBB188;}
	.st23{fill:#1B345E;}
	.st24{fill:#072542;}
	.st25{fill:#1F3A6F;}
	.st26{fill:#5693DB;}
	.st27{fill:#3177BC;}
	.st28{opacity:0.7;fill:#3177BC;}
	.st29{fill:#DD9F3C;}
	.st30{fill:#FFD8A9;}
	.st31{opacity:0.4;fill:#3777B7;}
	.st32{fill:#FFD6BB;}
	.st33{opacity:0.5;fill:#E2906D;}
</style>
<rect y="0" class="st0" width="3000" height="3000"/>
<g>
	<g>
		<path class="st1" d="M2632.15,2370.22c143.04-120,322.58-314.91,324.83-554.19c4.72-502.2-774.4-900.56-1391.74-958.75
			c-428.62-40.4-1272.28,36.72-1475.75,601.29c-145.08,402.58,119.8,818.64,182.02,911.64H2632.15z"/>
		<g>
			<g>
				<rect x="737.15" y="1351.5" class="st2" width="44.28" height="1012.19"/>
				<rect x="180.14" y="1351.5" class="st2" width="44.28" height="1012.19"/>
				<rect x="180.14" y="1510.48" class="st2" width="601.3" height="46.69"/>
				<rect x="180.14" y="1759.19" class="st2" width="601.3" height="46.69"/>
				<rect x="180.14" y="2007.89" class="st2" width="601.3" height="46.69"/>
			</g>
			<g>
				<rect x="254.72" y="1372.21" class="st3" width="191.11" height="138.27"/>
				<rect x="336.03" y="1372.21" class="st2" width="28.49" height="48.39"/>
				<g>
					<path class="st2" d="M297.39,1405.3h-27.31c-0.82,0-1.48-0.67-1.48-1.48v-16.22c0-0.82,0.67-1.48,1.48-1.48h27.31
						c0.82,0,1.48,0.67,1.48,1.48v16.21C298.87,1404.63,298.2,1405.3,297.39,1405.3z"/>
					<rect x="270.31" y="1388.33" class="st3" width="5.37" height="2.58"/>
					<rect x="270.31" y="1392.33" class="st3" width="26.45" height="2.58"/>
					<rect x="270.31" y="1396.34" class="st3" width="26.45" height="2.58"/>
					<rect x="270.31" y="1400.34" class="st3" width="26.45" height="2.58"/>
				</g>
			</g>
			<g>
				<rect x="254.72" y="1620.92" class="st3" width="191.11" height="138.27"/>
				<rect x="336.03" y="1620.92" class="st2" width="28.49" height="48.39"/>
				<g>
					<path class="st2" d="M297.39,1654h-27.31c-0.82,0-1.48-0.67-1.48-1.48v-16.22c0-0.82,0.67-1.48,1.48-1.48h27.31
						c0.82,0,1.48,0.67,1.48,1.48v16.21C298.87,1653.33,298.2,1654,297.39,1654z"/>
					<rect x="270.31" y="1637.03" class="st3" width="5.37" height="2.58"/>
					<rect x="270.31" y="1641.04" class="st3" width="26.45" height="2.58"/>
					<rect x="270.31" y="1645.04" class="st3" width="26.45" height="2.58"/>
					<rect x="270.31" y="1649.05" class="st3" width="26.45" height="2.58"/>
				</g>
			</g>
			<g>
				<rect x="283.73" y="1869.62" class="st3" width="263.75" height="138.27"/>
				<rect x="401.36" y="1869.62" class="st2" width="28.49" height="48.39"/>
				<g>
					<path class="st2" d="M326.4,1902.71h-27.31c-0.82,0-1.48-0.67-1.48-1.48v-16.22c0-0.82,0.67-1.48,1.48-1.48h27.31
						c0.82,0,1.48,0.67,1.48,1.48v16.21C327.89,1902.04,327.22,1902.71,326.4,1902.71z"/>
					<rect x="299.33" y="1885.74" class="st3" width="5.37" height="2.58"/>
					<rect x="299.33" y="1889.74" class="st3" width="26.45" height="2.58"/>
					<rect x="299.33" y="1893.75" class="st3" width="26.45" height="2.58"/>
					<rect x="299.33" y="1897.75" class="st3" width="26.45" height="2.58"/>
				</g>
			</g>
			<g>
				<rect x="504.98" y="1681.78" class="st3" width="106.99" height="77.41"/>
				<rect x="550.5" y="1681.78" class="st2" width="15.95" height="27.09"/>
				<g>
					<path class="st2" d="M528.87,1700.3h-15.29c-0.46,0-0.83-0.37-0.83-0.83v-9.08c0-0.46,0.37-0.83,0.83-0.83h15.29
						c0.46,0,0.83,0.37,0.83,0.83v9.08C529.7,1699.93,529.32,1700.3,528.87,1700.3z"/>
					<rect x="513.71" y="1690.8" class="st3" width="3.01" height="1.45"/>
					<rect x="513.71" y="1693.04" class="st3" width="14.81" height="1.45"/>
					<rect x="513.71" y="1695.29" class="st3" width="14.81" height="1.45"/>
					<rect x="513.71" y="1697.53" class="st3" width="14.81" height="1.45"/>
				</g>
			</g>
			<g>
				<rect x="593.54" y="1833.89" class="st3" width="106.99" height="174"/>
				<rect x="639.06" y="1833.89" class="st2" width="15.95" height="39.33"/>
				<g>
					<path class="st2" d="M684.73,1852.41h-15.29c-0.46,0-0.83-0.37-0.83-0.83v-9.08c0-0.46,0.37-0.83,0.83-0.83h15.29
						c0.46,0,0.83,0.37,0.83,0.83v9.08C685.56,1852.04,685.18,1852.41,684.73,1852.41z"/>
					<rect x="669.57" y="1842.91" class="st3" width="3.01" height="1.45"/>
					<rect x="669.57" y="1845.16" class="st3" width="14.81" height="1.45"/>
					<rect x="669.57" y="1847.4" class="st3" width="14.81" height="1.45"/>
					<rect x="669.57" y="1849.64" class="st3" width="14.81" height="1.45"/>
				</g>
			</g>
			<g>
				<rect x="480.78" y="1372.21" class="st3" width="191.11" height="138.27"/>
				<rect x="562.1" y="1372.21" class="st2" width="28.49" height="48.39"/>
				<g>
					<path class="st2" d="M523.46,1405.3h-27.31c-0.82,0-1.48-0.67-1.48-1.48v-16.22c0-0.82,0.67-1.48,1.48-1.48h27.31
						c0.82,0,1.48,0.67,1.48,1.48v16.21C524.94,1404.63,524.27,1405.3,523.46,1405.3z"/>
					<rect x="496.38" y="1388.33" class="st3" width="5.37" height="2.58"/>
					<rect x="496.38" y="1392.33" class="st3" width="26.45" height="2.58"/>
					<rect x="496.38" y="1396.34" class="st3" width="26.45" height="2.58"/>
					<rect x="496.38" y="1400.34" class="st3" width="26.45" height="2.58"/>
				</g>
			</g>
			<polygon class="st4" points="254.72,1379.98 445.83,1455.7 445.83,1372.21 254.72,1372.21 			"/>
			<polygon class="st4" points="254.72,1620.92 445.83,1727.48 445.83,1620.92 			"/>
			<polygon class="st4" points="480.78,1372.21 671.89,1463.71 671.89,1372.21 			"/>
			<g>
				<g>
					<rect x="538.19" y="1604.37" class="st3" width="106.99" height="77.41"/>
					<rect x="583.71" y="1604.37" class="st2" width="15.95" height="27.09"/>
					<g>
						<path class="st2" d="M562.08,1622.89h-15.29c-0.46,0-0.83-0.37-0.83-0.83v-9.08c0-0.46,0.37-0.83,0.83-0.83h15.29
							c0.46,0,0.83,0.37,0.83,0.83v9.08C562.91,1622.52,562.53,1622.89,562.08,1622.89z"/>
						<rect x="546.92" y="1613.39" class="st3" width="3.01" height="1.45"/>
						<rect x="546.92" y="1615.64" class="st3" width="14.81" height="1.45"/>
						<rect x="546.92" y="1617.88" class="st3" width="14.81" height="1.45"/>
						<rect x="546.92" y="1620.12" class="st3" width="14.81" height="1.45"/>
					</g>
				</g>
				<polygon class="st4" points="538.19,1612.16 645.18,1671.25 645.18,1604.37 538.19,1604.37 				"/>
			</g>
			<polygon class="st4" points="504.98,1686.16 611.97,1729.12 611.97,1681.78 504.98,1681.78 			"/>
			<polygon class="st4" points="283.73,1873.22 547.48,1965.4 547.48,1869.62 283.73,1869.62 			"/>
			<polygon class="st4" points="593.54,1847.4 700.53,1923.89 700.53,1833.89 593.54,1833.89 			"/>
			<rect x="167.9" y="1335.94" class="st3" width="68.75" height="31.11"/>
			<rect x="724.92" y="1335.94" class="st5" width="68.75" height="31.11"/>
		</g>
		<ellipse class="st2" cx="1457.63" cy="2374.26" rx="1328.08" ry="46.91"/>
		<g>
			<path class="st2" d="M952.74,2253.91h1577.98c24.9,0,45.09-20.19,45.09-45.09v-308.35c0-7.1-1.68-14.1-4.89-20.43l-172.35-339.13
				c-7.69-15.13-23.23-24.66-40.2-24.66H952.74c-24.9,0-45.09,20.19-45.09,45.09v647.48
				C907.64,2233.72,927.83,2253.91,952.74,2253.91z"/>
			<path class="st6" d="M2087.6,1598.89h216.96c14.23,0,27.18,8.22,33.24,21.1l83.01,176.55c2.3,4.89,3.49,10.23,3.49,15.63v22.41
				c0,20.29-16.44,36.73-36.73,36.73h-145.2c-9.91,0-19.39-4-26.3-11.09l-154.76-158.8c-6.68-6.86-10.43-16.06-10.43-25.64v-40.16
				C2050.87,1615.33,2067.32,1598.89,2087.6,1598.89L2087.6,1598.89z"/>
			<path class="st7" d="M1919.26,2072.35h-1031c-31.93,0-57.81-25.88-57.81-57.81v-759.4c0-31.93,25.88-57.81,57.81-57.81h1031
				c31.93,0,57.81,25.88,57.81,57.81v759.4C1977.08,2046.46,1951.19,2072.35,1919.26,2072.35z"/>
			<path class="st7" d="M1948.66,1292.9v683.91c0,38.18-30.95,69.14-69.14,69.14H927.65c-11.3,0-22.14-2.71-31.63-7.68
				c-22.37-11.52-37.51-34.57-37.51-61.45V1292.9c0-38.18,30.96-69.14,69.14-69.14h951.87c18.3,0,34.57,7,46.77,18.3
				C1940.07,1254.72,1948.66,1272.8,1948.66,1292.9z"/>
			<path class="st8" d="M2590.3,2256.03H898.81c-7.6,0-13.76-6.16-13.76-13.76v-67.44c0-7.6,6.16-13.76,13.76-13.76H2590.3
				c7.6,0,13.76,6.16,13.76,13.76v67.44C2604.05,2249.87,2597.89,2256.03,2590.3,2256.03z"/>
			<g>
				<g>
					
						<ellipse transform="matrix(0.7071 -0.7071 0.7071 0.7071 -1216.3197 1512.3148)" class="st9" cx="1217.37" cy="2224.39" rx="147.56" ry="147.56"/>
				</g>
				
					<ellipse transform="matrix(0.2298 -0.9732 0.9732 0.2298 -1227.2081 2898.127)" class="st10" cx="1217.37" cy="2224.39" rx="36.95" ry="36.95"/>
			</g>
			<g>
				<g>
					
						<ellipse transform="matrix(0.7071 -0.7071 0.7071 0.7071 -919.9094 2227.9126)" class="st9" cx="2229.37" cy="2224.39" rx="147.56" ry="147.56"/>
				</g>
				
					<ellipse transform="matrix(0.1602 -0.9871 0.9871 0.1602 -323.3949 4068.6653)" class="st10" cx="2229.37" cy="2224.39" rx="36.95" ry="36.95"/>
			</g>
			<polygon class="st11" points="1206.68,1223.77 858.51,1571.94 858.51,1337.64 972.38,1223.77 			"/>
			<polygon class="st12" points="1575.86,1223.77 858.51,1941.12 858.51,1706.59 1341.34,1223.77 			"/>
			<path class="st12" d="M1926.29,1242.07l-803.88,803.88H927.65c-11.3,0-22.14-2.71-31.63-7.68l814.5-814.5h169
				C1897.82,1223.77,1914.09,1230.77,1926.29,1242.07z"/>
			<polygon class="st12" points="1948.66,1354.58 1948.66,1588.88 1491.59,2045.95 1257.29,2045.95 			"/>
			<polygon class="st12" points="1948.66,1723.54 1948.66,1958.06 1860.77,2045.95 1626.24,2045.95 			"/>
			<g>
				
					<rect x="1567.01" y="960.75" transform="matrix(-0.7071 -0.7071 0.7071 -0.7071 2023.351 2869.7747)" class="st9" width="78.01" height="110.19"/>
				<path class="st13" d="M1636.15,887.18l-40.74,40.74c-2.93,2.94-3.94,7.07-2.98,10.82c0.47,1.93,1.48,3.75,2.98,5.25l82.47,82.47
					c1.5,1.5,3.3,2.48,5.21,2.98c3.77,0.94,7.92-0.04,10.86-2.98l40.74-40.74c2.93-2.93,3.92-7.09,2.98-10.86
					c-0.49-1.91-1.48-3.71-2.98-5.21l-82.47-82.47c-1.5-1.5-3.32-2.51-5.25-2.98C1643.22,883.24,1639.08,884.24,1636.15,887.18z"/>
				<path class="st14" d="M1727.93,962.9l-56.81,56.81l6.75,6.75c1.5,1.5,3.3,2.48,5.21,2.98l54.58-54.58
					c-0.49-1.91-1.48-3.71-2.98-5.21L1727.93,962.9z"/>
				
					<rect x="1644.83" y="969.09" transform="matrix(0.7071 -0.7071 0.7071 0.7071 -197.1512 1477.5831)" class="st14" width="80.34" height="15.36"/>
				
					<rect x="1624.87" y="949.15" transform="matrix(0.7071 -0.7071 0.7071 0.7071 -188.8945 1457.5983)" class="st14" width="80.34" height="15.33"/>
				
					<rect x="1604.91" y="929.19" transform="matrix(0.7071 -0.7071 0.7071 0.7071 -180.622 1437.6442)" class="st14" width="80.34" height="15.33"/>
				<path class="st14" d="M1646.96,884.2l-54.54,54.54c0.47,1.93,1.48,3.75,2.98,5.25l6.73,6.73l56.81-56.81l-6.73-6.73
					C1650.71,885.68,1648.89,884.67,1646.96,884.2z"/>
				<circle class="st0" cx="1217.37" cy="1402.98" r="484.7"/>
				<rect x="1155.22" y="788.05" class="st9" width="124.28" height="124.28"/>
				<polygon class="st15" points="1279.51,811.3 1155.22,811.3 1279.51,885.19 				"/>
				<path class="st13" d="M1342.47,739.89v34.74c0,21.92-17.93,39.85-39.85,39.85h-170.5c-21.92,0-39.85-17.93-39.85-39.85v-34.74
					c0-21.92,17.93-39.85,39.85-39.85h170.5C1324.53,700.04,1342.47,717.97,1342.47,739.89z"/>
				<path class="st16" d="M1216.39,936.85l0.28,469.61h482.2c0,0-20.03-281.39-149.51-358.87
					C1419.88,970.11,1314.67,928.06,1216.39,936.85z"/>
				
					<ellipse transform="matrix(0.7071 -0.7071 0.7071 0.7071 -635.0508 1272.8033)" class="st1" cx="1218.88" cy="1402.98" rx="273.71" ry="273.71"/>
				<path class="st13" d="M1217.37,1925.55c-288.15,0-522.57-234.42-522.57-522.57c0-288.15,234.42-522.57,522.57-522.57
					c288.15,0,522.57,234.42,522.57,522.57C1739.94,1691.12,1505.51,1925.55,1217.37,1925.55z M1217.37,956.14
					c-246.39,0-446.84,200.45-446.84,446.84c0,246.39,200.45,446.84,446.84,446.84c246.39,0,446.83-200.45,446.83-446.84
					C1664.2,1156.59,1463.75,956.14,1217.37,956.14z"/>
				<g>
					<path class="st13" d="M1216.39,1099.85L1216.39,1099.85c-8.84,0-16-7.17-16-16v-81.39c0-8.84,7.16-16,16-16l0,0
						c8.84,0,16,7.17,16,16v81.39C1232.39,1092.68,1225.23,1099.85,1216.39,1099.85z"/>
					<path class="st13" d="M1379.24,1123.27L1379.24,1123.27c-7.65-4.42-10.28-14.2-5.86-21.86l30.59-53
						c4.42-7.66,14.21-10.28,21.86-5.86l0,0c7.66,4.42,10.28,14.21,5.86,21.86l-30.59,53
						C1396.69,1125.07,1386.9,1127.69,1379.24,1123.27z"/>
					<path class="st13" d="M1498.49,1242.46L1498.49,1242.46c-4.42-7.65-1.8-17.44,5.85-21.86l52.98-30.62
						c7.65-4.42,17.44-1.8,21.86,5.85l0,0c4.42,7.65,1.8,17.44-5.85,21.86l-52.98,30.62
						C1512.7,1252.73,1502.92,1250.11,1498.49,1242.46z"/>
					<path class="st13" d="M1521.77,1405.3L1521.77,1405.3c0-8.84,7.16-16.01,15.99-16.01l81.63-0.05c8.84,0,16.01,7.16,16.01,15.99
						l0,0c0.01,8.84-7.16,16.01-15.99,16.01l-81.63,0.05C1528.94,1421.3,1521.77,1414.14,1521.77,1405.3z"/>
					<path class="st13" d="M1498.68,1568.17L1498.68,1568.17c4.41-7.66,14.2-10.29,21.86-5.87l53.02,30.56
						c7.66,4.41,10.29,14.2,5.87,21.86l0,0c-4.41,7.66-14.2,10.29-21.86,5.87l-53.02-30.56
						C1496.89,1585.61,1494.26,1575.83,1498.68,1568.17z"/>
					<path class="st13" d="M1379.56,1687.48L1379.56,1687.48c7.65-4.43,17.44-1.81,21.87,5.84l30.65,52.97
						c4.43,7.65,1.81,17.44-5.84,21.87h0c-7.65,4.43-17.44,1.81-21.87-5.84l-30.65-52.97
						C1369.3,1701.7,1371.91,1691.91,1379.56,1687.48z"/>
					<path class="st13" d="M1216.74,1712.18L1216.74,1712.18c8.84-0.01,16.01,7.15,16.02,15.99l0.09,80.31
						c0.01,8.84-7.15,16.01-15.99,16.02l0,0c-8.84,0.01-16.01-7.15-16.02-15.99l-0.09-80.31
						C1200.74,1719.36,1207.9,1712.19,1216.74,1712.18z"/>
					<path class="st13" d="M1053.85,1687.85L1053.85,1687.85c7.66,4.41,10.3,14.19,5.89,21.85l-30.53,53.04
						c-4.41,7.66-14.19,10.3-21.85,5.89l0,0c-7.66-4.41-10.3-14.19-5.89-21.85l30.53-53.04
						C1036.41,1686.08,1046.19,1683.45,1053.85,1687.85z"/>
					<path class="st13" d="M934.47,1568.81L934.47,1568.81c4.43,7.65,1.82,17.44-5.82,21.87l-52.95,30.68
						c-7.65,4.43-17.44,1.82-21.87-5.83l0,0c-4.43-7.65-1.82-17.44,5.82-21.87l52.95-30.68
						C920.25,1558.55,930.04,1561.16,934.47,1568.81z"/>
					<path class="st13" d="M914.1,1405.99L914.1,1405.99c0.01,8.84-7.14,16.02-15.98,16.03l-84.72,0.14
						c-8.84,0.02-16.02-7.14-16.03-15.98l0,0c-0.01-8.84,7.14-16.02,15.98-16.03l84.72-0.14
						C906.91,1389.99,914.09,1397.15,914.1,1405.99z"/>
					<path class="st13" d="M933.91,1243.1L933.91,1243.1c-4.4,7.66-14.19,10.3-21.85,5.9l-53.05-30.5
						c-7.66-4.4-10.3-14.19-5.9-21.85l0,0c4.4-7.66,14.19-10.3,21.85-5.9l53.05,30.5C935.68,1225.65,938.32,1235.43,933.91,1243.1z"
						/>
					<path class="st13" d="M1052.89,1123.64L1052.89,1123.64c-7.65,4.43-17.44,1.83-21.87-5.81l-30.71-52.93
						c-4.44-7.65-1.83-17.44,5.81-21.87l0,0c7.65-4.43,17.44-1.83,21.87,5.81l30.71,52.93
						C1063.14,1109.42,1060.54,1119.21,1052.89,1123.64z"/>
				</g>
				<path class="st17" d="M1136.11,1431.38c-0.39,0.21-0.91-0.27-0.98-0.69l-5.06-28.75c-0.1-0.56,0.25-1.05,0.66-1.12l33.69-4.64
					l92.83-12.76l266.15-36.83c1.11-0.2,1.43,1.61,0.32,1.81l-262.73,56.28l-91.63,19.57L1136.11,1431.38z"/>
				<path class="st16" d="M1138.17,1440.88c-0.38,0.24-0.92-0.21-1.03-0.62l-7.06-28.32c-0.14-0.55,0.17-1.06,0.58-1.16l33.28-6.99
					l91.71-19.23l262.92-55.36c1.09-0.27,1.54,1.51,0.44,1.78l-258.15,74.52l-90.04,25.93L1138.17,1440.88z"/>
				<path class="st17" d="M1170.84,1431.43c-2.46-4.04-4.3-8.52-5.5-13.31c-1.19-4.79-1.67-9.61-1.39-14.33l91.71-19.23
					c1.64,3.08,2.94,6.54,3.82,10.09c0.92,3.7,1.4,7.36,1.39,10.84L1170.84,1431.43z"/>
				<path class="st17" d="M1295.69,1221.48l-94.47,193.24l34.51,13.72l63.97-205.36
					C1300.49,1220.52,1296.86,1219.07,1295.69,1221.48z"/>
				<path class="st16" d="M1291.39,1209.87l-94.47,193.24l34.51,13.72l63.97-205.37C1296.2,1208.91,1292.57,1207.47,1291.39,1209.87
					z"/>
				<path class="st13" d="M1228.39,1452.4c-25.98,6.47-52.29-9.34-58.76-35.31c-6.47-25.98,9.34-52.29,35.31-58.76
					c25.98-6.47,52.29,9.33,58.76,35.31C1270.18,1419.61,1254.36,1445.92,1228.39,1452.4z"/>
				<path class="st6" d="M1221.7,1425.56c-11.16,2.78-22.46-4.01-25.24-15.17c-2.78-11.16,4.01-22.46,15.17-25.24
					c11.16-2.78,22.46,4.01,25.24,15.17C1239.65,1411.48,1232.86,1422.78,1221.7,1425.56z"/>
			</g>
			<path class="st9" d="M2142.48,1932.59h-54.97c-8.61,0-15.58-6.98-15.58-15.58l0,0c0-8.61,6.98-15.58,15.58-15.58h54.97
				c8.61,0,15.58,6.98,15.58,15.58l0,0C2158.06,1925.62,2151.09,1932.59,2142.48,1932.59z"/>
			<path class="st16" d="M2558.35,2049.04h17.46v112.03h-58.45v-71.04C2517.36,2067.4,2535.71,2049.04,2558.35,2049.04z"/>
		</g>
		<path class="st18" d="M651,1798.17L651,1798.17l92.99-16.32l-34.12-194.44l-55.9,9.81l-2.55,0.45l0,0l-34.55,6.06l0,0.01
			l-232.19,40.75l1.47,8.38c-1.72-0.14-3.4-0.25-5.03-0.34c-0.08-0.09-0.13-0.17-0.21-0.27c-3.03-3.32-5.77-11.87-7.65-19.07
			c-0.89-3.44-1.59-6.57-2.04-8.67c1.27-0.88,2.51-1.8,3.7-2.79c12.68-10.59,20.93-27.73,20.93-47.09c0-12.54-3.48-24.14-9.37-33.65
			c0.59,0.04,1.17,0.11,1.72,0.2c15.76,2.73,23.59-39.11,1.5-34.56c-22.09,4.55-28.2-1.6-54.57-0.35
			c-26.37,1.26-60.47,19.75-55.64,60.07c3.87,32.36,12.92,32.5,18.34,29.72c0.74,2.14,1.58,4.21,2.53,6.22
			c5.9,12.52,15.69,22.28,27.52,27.14c0.66,4.84,1.71,10.83,2.8,16.59c0.73,3.83,1.47,7.55,2.12,10.75
			c-17.79,4.68-43.09,14.32-54.11,32.86c-17.87,30.08-10.52,79.53,6.19,111.62c16.71,32.09,10.03,165.11,29.41,171.12
			c2.82,0.87,6.74,1.63,11.49,2.18c6.04,51.19,17.1,146.59,16.03,149.57c-1.46,4.06-93.17,139.02-93.17,139.02s4.04,2.36,9.97,5.72
			c-1.31,1.92-2.7,3.95-4.08,5.99c-1,1.46-2,2.92-2.97,4.34c-1.54,2.26-3.01,4.42-4.3,6.31c0,0,0,0,0,0.01
			c-6.8-2.82-8.12,7.92-10.22,11.65c-0.44,0.78-0.8,1.56-1.08,2.32c-1.44,4.02-0.45,7.8,4.35,10.89
			c5.72,3.66,87.97,48.24,92.61,47.06c1.5-0.37,2.57-1.65,3.08-3.42c1.05-3.7-0.49-9.59-6.29-13.92c-2.3-1.73-5.57-5.29-9.18-9.74
			c-9.72-11.97-21.9-30.21-24.35-35.6c-1.29-2.85-3.8-3.11-6.87-2.22l1.07-3.09l1.54,0.4l0.89-2.47c7.5,3.71,13.13,6.04,13.8,5.05
			c0.16-0.22,0.76-1.11,1.79-2.58c14.05-20.1,104.39-149.05,111.92-165.72c2.19-4.85,3.29-19.05,3.72-37.53l1.35,6.08l4.89,21.97
			l-23.63,201.23c0,0,4.71,0.45,11.43,1.09c-0.52,2.72-1.09,5.68-1.66,8.65c-0.18,0.93-0.35,1.85-0.53,2.79
			c-0.67,3.54-1.33,6.99-1.89,9.89c0,0,0,0.01,0,0.01c-7.35,0.12-4.29,10.5-4.73,14.76c-0.09,0.89-0.11,1.75-0.06,2.56
			c0.28,4.26,2.69,7.33,8.32,8.25c6.7,1.08,99.91,9.2,103.69,6.27c1.23-0.94,1.7-2.54,1.46-4.36c-0.51-3.82-4.28-8.6-11.31-10.26
			c-2.8-0.67-7.22-2.64-12.31-5.28c-13.68-7.1-32.12-18.99-36.52-22.95c-2.32-2.1-4.73-1.34-7.19,0.7l0,0l-0.32-4.33l-0.24-3.25
			c5.72,0.52,9.75,0.87,10.26,0.87c2,0,38.76-211.96,38.76-211.96l-10.42-196.73c15.43-17.14,14.56-28.19,12.77-37.14
			c-0.71-3.57-3-19.31-6.77-40.76c-0.54-3.09-1.12-6.31-1.73-9.61L651,1798.17z"/>
		<g>
			<g>
				<path class="st19" d="M439.08,2346.65l-29.55,9.3c0,0-14.45-5.43-14.45-6.1c0.01-0.18,0.64-3.45,1.5-8.07
					c0.56-2.9,1.22-6.35,1.89-9.89c0.18-0.93,0.35-1.85,0.53-2.79c1.97-10.25,3.93-20.45,3.93-20.45l33.6,4.41l0.74,9.77l0.32,4.32
					l0.32,4.33l1.09,14.24L439.08,2346.65z"/>
				<g>
					<path class="st1" d="M391.85,2356.55c-0.09,0.89-0.11,1.75-0.06,2.56c0.28,4.26,2.69,7.34,8.32,8.25
						c6.7,1.08,99.91,9.2,103.69,6.27c1.23-0.94,1.7-2.54,1.46-4.36c-0.51-3.82-4.28-8.6-11.31-10.26
						c-2.8-0.67-7.22-2.64-12.31-5.28c-13.68-7.1-32.12-18.99-36.52-22.95c-4.61-4.18-9.6,2.96-14.57,8.99
						c-1.52,1.83-3.01,3.56-4.51,4.85c-6.43,5.54-19.42,0.39-19.42,0.39C387,2334.98,392.43,2350.99,391.85,2356.55z"/>
					<path class="st20" d="M391.79,2359.11c0.28,4.26,2.69,7.34,8.32,8.25c6.7,1.08,99.91,9.2,103.69,6.27
						c1.23-0.94,1.7-2.54,1.46-4.36c-1.73,0.87-5.34,1.41-12.57,0.84C475.81,2368.76,405.52,2365.73,391.79,2359.11z"/>
					<path class="st21" d="M430.55,2339.76c28.98,22.09,44.69,17.88,51.09,13.97c-13.68-7.1-32.12-18.99-36.52-22.95
						C440.51,2326.6,435.52,2333.73,430.55,2339.76z"/>
				</g>
			</g>
			<path class="st22" d="M437.6,2327.14l-39.13,4.74c0.18-0.93,0.35-1.85,0.53-2.79c1.97-10.25,3.93-20.45,3.93-20.45l33.6,4.41
				l0.74,9.77L437.6,2327.14z"/>
			<g>
				<path class="st19" d="M277.95,2278.57l-3.21,9.27l-1.78,5.09l-1.08,3.1l-4.69,13.49l-0.31,0.88l-30.81-3.24
					c0,0-11.12-10.77-10.82-11.35c0.09-0.16,1.96-2.92,4.6-6.8c1.3-1.89,2.76-4.06,4.3-6.31c0.97-1.43,1.97-2.88,2.97-4.34
					c5.33-7.83,10.65-15.59,11.6-16.98l0.01-0.01c0.09-0.14,0.14-0.21,0.14-0.21l0.08,0.05L277.95,2278.57z"/>
				<g>
					<path class="st1" d="M219.63,2300.66c-0.44,0.78-0.8,1.56-1.08,2.32c-1.44,4.02-0.45,7.8,4.35,10.89
						c5.72,3.66,87.97,48.24,92.61,47.06c1.5-0.37,2.57-1.65,3.08-3.42c1.05-3.7-0.49-9.59-6.29-13.92
						c-2.3-1.73-5.57-5.29-9.18-9.74c-9.72-11.97-21.9-30.21-24.35-35.6c-2.57-5.67-9.98-1.11-16.95,2.44
						c-2.12,1.07-4.18,2.07-6.07,2.65c-8.1,2.52-17.97-7.38-17.97-7.38C223.77,2278.95,222.38,2295.79,219.63,2300.66z"/>
					<path class="st20" d="M218.55,2302.98c-1.44,4.02-0.45,7.8,4.35,10.89c5.72,3.66,87.97,48.24,92.61,47.06
						c1.5-0.37,2.57-1.65,3.08-3.42c-1.94,0.1-5.46-0.84-11.86-4.24C291.77,2345.31,228.5,2314.53,218.55,2302.98z"/>
					<path class="st21" d="M261.81,2300.68c17.78,31.8,33.87,34.2,41.3,33.16c-9.72-11.97-21.9-30.21-24.35-35.6
						C276.19,2292.57,268.77,2297.13,261.81,2300.68z"/>
				</g>
			</g>
			<path class="st22" d="M280.98,2275.39l-6.48,17.94l-1.54-0.4l-38.8-10.24c0.97-1.43,1.97-2.88,2.97-4.34
				c5.33-7.83,10.65-15.59,11.6-16.98l0.01-0.01l0.22-0.16l5.25-3.73L280.98,2275.39z"/>
			<path class="st23" d="M486.38,2112.81c0,0-36.77,211.96-38.76,211.96c-2.01,0-58.38-5.42-58.38-5.42l23.63-201.23l-4.89-21.97
				l-30.55-137.46l22.39-13.85l75.19-46.51L486.38,2112.81z"/>
			<path class="st24" d="M406.24,2088.36c5.43-44.08,17.69-142.6,19.04-144.94l-29.38,10.8l5.68,113.11L406.24,2088.36z"/>
			<path class="st25" d="M402.91,2127.61c-7.53,16.67-97.87,145.62-111.92,165.72c-1.02,1.46-1.63,2.36-1.79,2.58
				c-2.2,3.24-57.96-29.28-57.96-29.28s91.7-134.96,93.17-139.02c1.46-4.07-19.8-181.31-19.8-181.31h98.3
				c0.1,1.26,0.22,3.08,0.36,5.42C405.19,1983.92,410.43,2110.93,402.91,2127.61z"/>
			<path class="st26" d="M450.52,1938.44c-3.46,2.57-7.21,5.24-11.26,8.01c-52.8,36.09-122.99,35.43-142.38,29.42
				c-19.37-6.01-12.7-139.03-29.41-171.12c-16.72-32.09-24.07-81.54-6.19-111.62c17.88-30.08,73.37-36.77,73.37-36.77
				s8.61-0.98,22.04-0.64c15.91,0.4,38.63,2.68,61.84,10.65c21.67,7.45,38.7,58.44,50.6,108.69c5.68,23.99,10.17,47.81,13.44,66.64
				c3.41,19.63,5.48,33.86,6.16,37.23C491.19,1891.29,491.96,1907.61,450.52,1938.44z"/>
			<path class="st27" d="M450.52,1938.44c37.48-76.09-21.8-112.53-21.8-112.53l-72.03-170.19c15.91,0.4,38.63,2.68,61.84,10.65
				c42.78,14.71,67.52,199.19,70.19,212.57C491.19,1891.29,491.96,1907.61,450.52,1938.44z"/>
			<path class="st27" d="M263.24,1731.22c0,0,2.73,34.43,39.67,56.14s99.12,59.81,102.06,33.37c0.32-2.92,2.59-31.75,2.59-31.75
				L263.24,1731.22z"/>
			<polygon class="st27" points="347.91,1685.77 389.74,1723.37 372.73,1734.71 349.24,1713.48 			"/>
			<path class="st26" d="M347.91,1685.77l39.66,50.36l-45.45,61.5c0,0-61.05-24.95-78.87-66.4L347.91,1685.77z"/>
			<path class="st19" d="M345.07,1670.01c-15.86,5.01-27.63,0-27.63,0s-2.15-9.82-4.17-20.49c-1.8-9.51-3.5-19.67-3.5-24.21h43.48
				c0,0,0.98,5.19,2.59,11.38c1.88,7.2,4.61,15.75,7.65,19.07C369.11,1661.91,360.92,1665,345.07,1670.01z"/>
			<path class="st22" d="M355.84,1636.68c-7.27,5.29-20.94,12.32-42.57,12.83c-1.8-9.51-3.5-19.67-3.5-24.21h43.48
				C353.25,1625.3,354.24,1630.49,355.84,1636.68z"/>
			<path class="st19" d="M378.44,1578.12c0,19.36-8.24,36.5-20.93,47.09c-8.38,6.99-18.71,11.12-29.87,11.12
				c-19.32,0-36.12-12.35-44.69-30.55c-1.81-3.81-3.24-7.86-4.27-12.12c-1.2-4.95-1.83-10.16-1.83-15.54
				c0-32.14,22.74-58.2,50.79-58.2c10.98,0,21.15,4,29.47,10.78C370.02,1541.27,378.44,1558.57,378.44,1578.12z"/>
			<path class="st28" d="M482.57,1841.71l-102.87,27.4c0,0,0-68.79,0-71.49l89.44-22.55
				C474.81,1799.06,479.31,1822.88,482.57,1841.71z"/>
			<g>
				<polygon class="st7" points="633.57,1801.66 401.38,1842.41 396.68,1815.57 385.27,1750.59 367.26,1647.97 599.45,1607.23 
					618.37,1715.03 620.27,1725.86 				"/>
				
					<rect x="615.79" y="1597.58" transform="matrix(0.9849 -0.1728 0.1728 0.9849 -283.2106 140.1248)" class="st16" width="94.42" height="197.41"/>
				
					<rect x="638.84" y="1598.62" transform="matrix(0.9849 -0.1728 0.1728 0.9849 -271.5446 137.0129)" class="st29" width="24.25" height="58.24"/>
				<path class="st30" d="M452.96,1682.44l-51.94,9.11c-1.72,0.3-3.37-0.85-3.67-2.57l-4.09-23.28c-0.3-1.72,0.85-3.37,2.57-3.67
					l51.94-9.11c1.72-0.3,3.37,0.85,3.67,2.57l4.09,23.28C455.84,1680.49,454.69,1682.14,452.96,1682.44z"/>
			</g>
			<path class="st31" d="M619.44,1724.25c-0.19,0.51-0.43,1.04-0.69,1.61c-11.42,24.34-90.01,102.24-180.23,100.53
				c-2.24-0.04-22.3-5.22-43.36-10.82l-11.4-64.98c14.62,6.32,63.67,26.8,66.35,26.8c3.12,0,120.32-35.76,122.11-38.88
				c1.78-3.12-4.02-25.4,4.45-21.4c8.48,4.02,0,8.92,12.48,8.92c7.79,0,20.98-9.38,27.71-11
				C620.91,1714.05,622.62,1715.89,619.44,1724.25z"/>
			<path class="st19" d="M617.96,1715.18c-8.48,22.28-88.61,103.89-180.93,102.14c-3.49-0.06-49.92-12.52-76.36-19.67
				c-6.88-1.87-12.42-3.37-15.47-4.2l8.11-10.96l24.17-32.7l5.79-7.84l2.67,1.14c17.78,7.62,60.19,25.23,62.67,25.23
				c2.42,0,73.88-21.63,106.35-32.72c9.27-3.16,15.36-5.47,15.76-6.16c1.78-3.12-4.02-25.4,4.46-21.4c8.46,4.02,0,8.92,12.47,8.92
				c6.1,0,15.53-5.77,22.56-9.03C617.55,1704.5,622.28,1703.8,617.96,1715.18z"/>
			<path class="st22" d="M617.96,1715.18c-8.48,22.28-88.61,103.89-180.93,102.14c-3.49-0.06-49.92-12.52-76.36-19.67
				c-6.88-1.87-12.42-3.37-15.47-4.2l8.11-10.96c65.52,24.29,107.24,39.7,181.26-2.01c57.42-32.36,71.97-60.65,75.65-72.55
				C617.55,1704.5,622.28,1703.8,617.96,1715.18z"/>
			<path class="st32" d="M554.97,1735.59l-107.55,42.04l-69.93-27.85l5.79-7.84l2.67,1.14c17.78,7.62,60.19,25.23,62.67,25.23
				C451.04,1768.32,522.5,1746.69,554.97,1735.59z"/>
			<path class="st33" d="M385.94,1743.08l-25.27,54.56c-6.88-1.87-12.42-3.37-15.47-4.2l38.08-51.5L385.94,1743.08z"/>
			<path class="st32" d="M378.44,1578.12c0,19.36-8.24,36.5-20.93,47.09c36.94-54.69-14.68-95.28-14.68-95.28l14.28,0.76
				C370.02,1541.27,378.44,1558.57,378.44,1578.12z"/>
			<path class="st22" d="M282.95,1605.78c-1.81-3.81-3.24-7.86-4.27-12.12l23.29-16.09
				C301.97,1577.57,306.85,1587.25,282.95,1605.78z"/>
			<path class="st25" d="M321.5,1561.05c0,0,33.53-19.1,49.29-16.37c15.76,2.73,23.59-39.11,1.5-34.56
				c-22.09,4.55-28.2-1.6-54.57-0.35c-26.37,1.26-60.47,19.75-55.64,60.07c4.82,40.32,17.69,30.62,21.55,27.59
				c3.86-3.03,23.8-15.16,19.3-24.56S296.98,1544.38,321.5,1561.05z"/>
		</g>
	</g>
	<circle class="st2" cx="2371.57" cy="1099.85" r="87.98"/>
	<circle class="st2" cx="2679" cy="1533.82" r="49.59"/>
	<circle class="st16" cx="509.6" cy="1188.62" r="32.42"/>
</g>
</svg>
