<?xml version="1.0" encoding="utf-8"?>
<!-- Generator: Adobe Illustrator 24.2.1, SVG Export Plug-In . SVG Version: 6.00 Build 0)  -->
<svg version="1.1" id="Ñëîé_1" xmlns="http://www.w3.org/2000/svg" xmlns:xlink="http://www.w3.org/1999/xlink" x="0px" y="0px"
	 viewBox="0 0 4000 4000" style="enable-background:new 0 0 4000 4000;" xml:space="preserve">
<style type="text/css">
	.st0{fill:#FFFFFF;}
	.st1{fill:#EDF3FF;}
	.st2{fill:#DFEBFB;}
	.st3{fill:#AECDFD;}
	.st4{fill:#CEE1FD;}
	.st5{fill:#133550;}
	.st6{fill:#FFB9A6;}
	.st7{fill:#252B6B;}
	.st8{fill:#444D9C;}
	.st9{fill:#E59689;}
	.st10{fill:#FF9B39;}
	.st11{fill:#FFF8F8;}
	.st12{fill:#FCBF5F;}
	.st13{fill:#E59689;stroke:#E59689;stroke-width:6.4;stroke-miterlimit:10;}
	.st14{fill:#FD474A;}
	.st15{fill:#DFA99F;}
	.st16{fill:#CF8380;}
	.st17{fill:#78A5E8;}
	.st18{fill:#C9792E;}
	.st19{fill:#F6CC80;}
	.st20{fill:#CC2F3E;}
	.st21{fill:#E83A43;}
	.st22{fill:#E59689;stroke:#E59689;stroke-width:8;stroke-miterlimit:10;}
	.st23{fill:#51BEA5;}
	.st24{fill:#164C70;}
	.st25{fill:#77A3E1;}
	.st26{fill:#A0C1F4;}
	.st27{fill:#AECEFD;}
</style>
<g>
	<rect class="st0" width="4000" height="4000"/>
	<g>
		<g>
			<path class="st1" d="M3418.69,1858.78c11.66-13.79,22.82-26.86,33.55-39.38c10.74-12.53,21.04-24.5,31.04-36.08
				c8.72-10.11,16.98-19.7,24.96-28.99c7.98-9.31,15.7-18.34,23.33-27.36c37.09-43.84,68.05-82.53,95.2-123.65
				c27.15-41.12,50.5-84.67,72.34-138.22c36.94-90.56,69.68-209.84,69.68-331.3c0-84.7-15.92-170.48-57.44-248.29
				c-49.97-93.65-136.98-175.68-247.92-234.3c-110.96-58.61-245.87-93.81-391.7-93.81c-3.18,0-6.4,0.02-9.58,0.06
				c-147.89,1.57-306.66,39.34-454.13,100.19c-114.8,47.34-222.77,108.67-313.44,177.74c-25.82,19.66-50.24,39.95-73.01,60.74
				c-54.24,49.49-99.17,101.74-139.44,155.34c-40.26,53.62-75.86,108.61-111.46,163.58c-31.87,49.22-63.74,98.43-98.96,146.69
				c-35.22,48.26-73.79,95.55-119.04,140.93c-95.84,96.1-221.74,183.65-358.51,261.39c-136.78,77.73-284.43,145.65-423.74,202.46
				c-40.88,16.67-81.04,32.38-120.26,47.73c-11.63,4.56-23.14,9.06-34.56,13.55c-25.38,9.97-50.26,19.82-74.74,29.82
				c-51.12,20.85-100.02,42.05-146.05,65.1c-35.26,17.66-68.85,36.42-100.46,56.94c-72.85,47.31-135.2,104.03-183.52,178.51
				c-83.65,128.93-125.18,310.94-125.18,484.88c0,107.57,15.89,212.03,47.5,298.96c41.41,113.84,109.79,197.57,191.6,266.19
				c52.37,43.94,110.24,81.7,170.06,117.2c7.28,4.32,14.59,8.61,21.92,12.86c26.53,15.42,53.34,30.51,80.16,45.58
				c0.22,0.13,0.46,0.19,0.72,0.18l2746.18-65.15c0.34-0.02,0.67-0.14,0.91-0.38c4.5-4.14,9.01-8.3,13.5-12.45
				c41.07-37.97,81.55-76.45,115.25-119.73c37.36-48.02,66.38-101.9,78.54-167.49c4.21-22.69,6.4-46.75,6.4-71.68
				c0-119.1-50.05-257.5-169.33-355.3c-24.08-19.76-50.98-37.84-79.14-55.01c-28.18-17.18-57.62-33.46-86.77-49.57
				c-28.22-15.6-56.21-31.06-82.54-47.07c-26.34-16-51.04-32.56-72.74-50.34c-22.99-18.85-42.56-39.06-57.12-61.42
				s-24.11-46.91-27.06-74.43c-8.96-83.87,43.26-195.73,115.54-307.5C3266.1,2043.17,3350.1,1939.84,3418.69,1858.78z
				 M697.55,3581.26l0.38-0.02c0.11,0.06,0.22,0.13,0.34,0.19L697.55,3581.26z M3443.18,3516.11l0.54-0.02l-0.93,0.37
				C3442.93,3516.35,3443.06,3516.22,3443.18,3516.11z"/>
		</g>
		<rect x="1034.09" y="2331.77" class="st2" width="661.46" height="1184.33"/>
		<rect x="1343.1" y="2501.12" class="st2" width="661.46" height="1019.31"/>
		<rect x="1901" y="2081.49" class="st2" width="661.46" height="1019.31"/>
		<path class="st3" d="M815.6,2027.82l344.96,51.98l27.98,1458.49l-571.81,0.01c-7.33-4.26-14.64-8.54-21.92-12.86
			c-59.82-35.5-117.7-73.26-170.06-117.2c-81.81-68.62-150.19-152.35-191.6-266.19c-31.62-86.93-47.5-191.39-47.5-298.96
			c0-173.94,41.54-355.95,125.18-484.88c48.32-74.48,110.67-131.2,183.52-178.51c31.62-20.53,65.2-39.28,100.46-56.94
			c46.03-23.06,94.93-44.26,146.05-65.1C765.34,2047.65,790.22,2037.79,815.6,2027.82z"/>
		<path class="st4" d="M3199.25,2146.54c-72.27,111.78-124.5,223.63-115.54,307.5c2.94,27.52,12.5,52.06,27.06,74.43
			s34.13,42.58,57.12,61.42c21.7,17.78,46.4,34.34,72.74,50.34c26.34,16.02,54.32,31.47,82.54,47.07
			c29.15,16.11,58.59,32.38,86.77,49.57c28.16,17.17,55.06,35.25,79.14,55.01c119.28,97.79,169.33,236.19,169.33,355.3
			c0,24.93-2.19,48.99-6.4,71.68c-12.16,65.58-41.18,119.47-78.54,167.49c-33.7,43.28-74.18,81.76-115.25,119.73H2294.58V835.41
			c90.67-69.07,198.64-130.4,313.44-177.74c147.47-60.85,306.24-98.62,454.13-100.19c3.18-0.05,6.4-0.06,9.58-0.06
			c145.82,0,280.74,35.2,391.7,93.81c110.94,58.62,197.95,140.66,247.92,234.3c41.52,77.81,57.44,163.58,57.44,248.29
			c0,121.46-32.74,240.74-69.68,331.3c-21.84,53.55-45.18,97.1-72.34,138.22c-27.15,41.12-58.11,79.81-95.2,123.65
			c-7.63,9.02-15.34,18.05-23.33,27.36c-7.98,9.3-16.24,18.88-24.96,28.99c-10,11.58-20.3,23.55-31.04,36.08
			c-10.74,12.51-21.89,25.58-33.55,39.38C3350.1,1939.84,3266.1,2043.17,3199.25,2146.54z"/>
		<rect x="2735.74" y="1330.46" class="st1" width="316.8" height="101.92"/>
		<rect x="2483.12" y="2249.23" class="st1" width="316.8" height="101.92"/>
		<rect x="3131.31" y="3083.05" class="st1" width="316.8" height="101.92"/>
		<rect x="634.06" y="3027.61" class="st2" width="316.8" height="101.92"/>
		<rect x="370.3" y="2732.1" class="st2" width="316.8" height="101.92"/>
		<rect x="723.62" y="2301.94" class="st2" width="316.8" height="101.92"/>
		<path class="st5" d="M3321.86,3646.33H671.55c-106.96,0-193.66-86.71-193.66-193.66v-3.2h3037.63v3.2
			C3515.52,3559.62,3428.82,3646.33,3321.86,3646.33z"/>
		<polygon class="st6" points="942.43,3413.18 785.36,3416.83 792.42,3343.95 801.02,3255.17 941.57,3239.81 942.11,3348.37 		"/>
		<g>
			<path class="st7" d="M1454.69,2304.26c-2.3-45.92-5.9-98.82-10.16-155.22c-4.26-56.4-9.17-116.27-14.1-176.16
				c-0.05-0.75-0.69-1.31-1.42-1.3l-595.7,14.88c-0.72,0.03-1.31,0.58-1.38,1.28c-2.74,28.91-5.47,57.82-7.92,91.33
				c-2.43,33.5-4.58,71.6-6.11,118.85c-0.67,20.85-1.23,43.46-1.74,67.17c-0.5,23.71-0.96,48.53-1.41,73.76
				c-0.48,26.99-0.99,54.46-1.57,81.55c-0.59,27.1-1.25,53.84-2.08,79.36c-0.3,9.42-0.64,18.62-0.99,27.68
				c-1.17,29.81-2.61,57.36-4.19,83.89c-1.6,26.51-3.33,51.97-5.07,77.57c-1.3,19.01-2.59,38.11-3.84,57.76s-2.45,39.84-3.54,61.07
				c-2.56,49.78-4.51,105.25-5.87,159.34c-1.36,54.1-2.1,106.82-2.22,151.09c-0.02,4.34-0.02,8.59-0.02,12.77
				c0,50.26,0.83,89.36,1.98,124.24c0.69,21.42,1.52,41.26,2.35,61.09c0.03,0.74,0.61,1.33,1.34,1.36l166.64,6.21
				c0.66,0.03,1.25-0.42,1.41-1.04l0.37-1.36c5.63-21.54,11.28-43.09,17.25-66.26c1.06-4.06,2.11-8.19,3.18-12.38
				c7.15-27.95,14.86-58.51,23.6-94.22c8.82-36.02,18.7-77.28,28.37-118.56c9.68-41.28,19.12-82.58,27.09-118.64
				c7.97-36.08,14.45-66.94,20.19-98.4c5.76-31.46,10.8-63.52,15.89-101.97c3.28-24.91,6.61-52.53,9.86-80.88
				c3.26-28.37,6.48-57.5,9.55-85.47c1.66-15.22,3.3-30.06,4.9-44.26c1.57-14.19,3.1-27.74,4.59-40.37
				c1.92-16.4,3.74-31.18,5.49-45.01s3.42-26.66,5.04-39.14c1.46-11.3,2.9-22.29,4.32-33.5c1.42-11.2,2.83-22.59,4.24-34.69
				c0.86-7.46,1.74-15.22,2.62-23.28c1.34-12.22,2.69-25.22,4.05-38.18c0.43-4.16,1.29-9.61,2.25-15.08
				c1.17-6.64,10.68-6.67,11.88-0.04c0.68,3.72,1.23,7.9,1.56,12.51c3.04,42.83,0.94,92.86,0.94,130.53
				c0,31.78-0.14,54.72-0.4,74.45c-0.26,19.73-0.61,36.26-1.01,55.18c-0.08,3.63-0.16,7.12-0.24,10.72
				c-0.06,3.6-0.14,7.31-0.22,11.41c-0.35,17.02-0.72,36.86-0.72,59.71c0,45.31,1.46,102.51,7.38,173.25
				c4.46,53.2,11.46,114.03,19.39,173.5c7.94,59.47,16.8,117.55,24.98,165.25c8.19,47.7,15.71,85.01,22.9,117.1
				c1.39,6.24,2.78,12.29,4.14,18.18c5.68,24.38,11.2,46.06,16.72,67.71c0.16,0.62,0.72,1.06,1.38,1.06l178.94-1.55
				c0.75-0.02,1.36-0.61,1.39-1.36l0.13-3.17c0.88-20.96,1.76-41.92,2.62-62.69c1.15-27.36,2.26-54.4,3.31-80.74
				c1.82-46.35,3.47-90.51,4.72-130.38c1.26-40.3,2.11-76.18,2.75-112.02c0.64-35.81,1.06-71.58,1.44-111.62
				c0.24-26.14,0.48-54.27,0.72-83.04c0.22-28.78,0.45-58.21,0.66-86.94c0.11-15.06,0.22-30.11,0.34-44.85
				c0.11-14.74,0.22-29.14,0.34-42.91v-0.08l0.05-6.4l0.05-6.26c0.19-23.66,0.35-46.05,0.35-68.35
				C1458.42,2411.28,1457.65,2363.62,1454.69,2304.26z M834.62,1989.25l-1.25,0.03l1.36-1.26
				C834.7,1988.43,834.66,1988.83,834.62,1989.25z M1427.74,1974.43c-0.03-0.45-0.08-0.88-0.11-1.33l1.44,1.3L1427.74,1974.43z"/>
		</g>
		<g>
			<g>
				<path class="st8" d="M863.9,2039.87c-3.98,0-7.2-3.22-7.2-7.2v-23.2c0-3.98,3.22-7.2,7.2-7.2c3.98,0,7.2,3.22,7.2,7.2v23.2
					C871.1,2036.65,867.87,2039.87,863.9,2039.87z"/>
			</g>
			<g>
				<path class="st8" d="M822.8,3215.55c-0.16,0-0.32,0-0.48-0.02c-3.97-0.26-6.97-3.69-6.71-7.66l2.97-45.17
					c0.26-3.97,3.68-7.01,7.66-6.71c3.97,0.26,6.97,3.69,6.71,7.66l-2.97,45.17C829.73,3212.63,826.56,3215.55,822.8,3215.55z
					 M828.74,3125.2c-0.16,0-0.32,0-0.48-0.02c-3.97-0.26-6.97-3.69-6.71-7.66l2.97-45.17c0.26-3.97,3.67-6.99,7.66-6.71
					c3.97,0.26,6.97,3.69,6.71,7.66l-2.97,45.17C835.67,3122.28,832.5,3125.2,828.74,3125.2z M834.68,3034.86
					c-0.16,0-0.32,0-0.48-0.02c-3.97-0.26-6.97-3.69-6.71-7.66l2.97-45.17c0.26-3.97,3.67-7,7.66-6.71
					c3.97,0.26,6.97,3.69,6.71,7.66l-2.97,45.17C841.61,3031.94,838.44,3034.86,834.68,3034.86z M840.62,2944.51
					c-0.16,0-0.32,0-0.48-0.02c-3.97-0.26-6.97-3.69-6.71-7.66l2.97-45.17c0.26-3.97,3.7-6.98,7.66-6.71
					c3.97,0.26,6.97,3.69,6.71,7.66l-2.97,45.17C847.55,2941.59,844.38,2944.51,840.62,2944.51z M846.56,2854.17
					c-0.16,0-0.32,0-0.48-0.02c-3.97-0.26-6.97-3.69-6.71-7.66l2.97-45.17c0.26-3.97,3.69-7,7.66-6.71
					c3.97,0.26,6.97,3.69,6.71,7.66l-2.97,45.17C853.49,2851.25,850.32,2854.17,846.56,2854.17z M852.5,2763.82
					c-0.16,0-0.32,0-0.48-0.02c-3.97-0.26-6.97-3.69-6.71-7.66l2.97-45.17c0.26-3.97,3.7-6.97,7.66-6.71
					c3.97,0.26,6.97,3.69,6.71,7.66l-2.97,45.17C859.43,2760.9,856.26,2763.82,852.5,2763.82z M858.44,2673.48
					c-0.16,0-0.32,0-0.48-0.02c-3.97-0.26-6.97-3.69-6.71-7.66l2.97-45.17c0.26-3.97,3.68-6.99,7.66-6.71
					c3.97,0.26,6.97,3.69,6.71,7.66l-2.97,45.17C865.37,2670.56,862.2,2673.48,858.44,2673.48z M863.9,2583.12
					c-3.98,0-7.2-3.22-7.2-7.2v-45.27c0-3.98,3.22-7.2,7.2-7.2c3.98,0,7.2,3.22,7.2,7.2v45.27
					C871.1,2579.89,867.87,2583.12,863.9,2583.12z M863.9,2492.57c-3.98,0-7.2-3.22-7.2-7.2v-45.27c0-3.98,3.22-7.2,7.2-7.2
					c3.98,0,7.2,3.22,7.2,7.2v45.27C871.1,2489.35,867.87,2492.57,863.9,2492.57z M863.9,2402.03c-3.98,0-7.2-3.22-7.2-7.2v-45.27
					c0-3.98,3.22-7.2,7.2-7.2c3.98,0,7.2,3.22,7.2,7.2v45.27C871.1,2398.81,867.87,2402.03,863.9,2402.03z M863.9,2311.49
					c-3.98,0-7.2-3.22-7.2-7.2v-45.27c0-3.98,3.22-7.2,7.2-7.2c3.98,0,7.2,3.22,7.2,7.2v45.27
					C871.1,2308.27,867.87,2311.49,863.9,2311.49z M863.9,2220.95c-3.98,0-7.2-3.22-7.2-7.2v-45.27c0-3.98,3.22-7.2,7.2-7.2
					c3.98,0,7.2,3.22,7.2,7.2v45.27C871.1,2217.73,867.87,2220.95,863.9,2220.95z M863.9,2130.41c-3.98,0-7.2-3.22-7.2-7.2v-45.27
					c0-3.98,3.22-7.2,7.2-7.2c3.98,0,7.2,3.22,7.2,7.2v45.27C871.1,2127.19,867.87,2130.41,863.9,2130.41z"/>
			</g>
			<g>
				<path class="st8" d="M818.31,3283.87c-0.16,0-0.32,0-0.48-0.02c-3.97-0.26-6.97-3.69-6.71-7.66l1.52-23.15
					c0.26-3.97,3.67-6.99,7.66-6.71c3.97,0.26,6.97,3.69,6.71,7.66l-1.52,23.15C825.24,3280.95,822.07,3283.87,818.31,3283.87z"/>
			</g>
		</g>
		<g>
			<path class="st8" d="M947.7,2171.31c-3.65,0.85-7.38-1.27-8.5-4.9c-1.17-3.8,0.97-7.82,4.76-8.99l0,0
				c0.31-0.1,31.4-9.94,58.63-36.39c36.07-35.04,48.79-81.48,37.8-138.02c-0.76-3.9,1.75-7.7,5.69-8.44
				c3.9-0.76,7.68,1.79,8.44,5.69c14.97,77.04-14.76,124.92-42.34,151.51c-29.72,28.66-62.61,38.98-63.99,39.41
				C948.04,2171.23,947.87,2171.28,947.7,2171.31z"/>
		</g>
		<g>
			<polygon points="2208.46,1817.27 2208.46,1817.27 2208.45,1817.28 			"/>
			<path class="st6" d="M2382.84,1772.72c-3.81-8.64-14.06-9.12-22.9-9.66c-14.98-2.02-29.82-4.03-43.34-7.65
				c-2.11-0.56-4.18-1.15-6.21-1.78c-5.95-1.82-11.6-3.86-16.86-5.74c-4.53-1.62-8.78-3.15-12.66-4.34
				c-9.97-3.06-17.46-3.84-25.58-3.46c-6.96,0.34-14.38,1.54-21.38,2.7c-0.45,0.08-1.2,0.21-1.65,0.29l-1.62,0.27l-0.46,0.08
				c-6.61,1.12-14.35,2.24-16.08,6.3c-0.14,0.38-0.26,0.77-0.3,1.18c-0.03,0.22-0.05,0.45-0.05,0.67c0,5.04,7.26,11.39,16.88,12.72
				c5.57,0.78,12.19-0.02,17.65-0.69c4.88-0.58,8.53-0.99,10.32-0.48c0.11,0.03,0.22,0.06,0.3,0.11c0.61,0.26,1.14,0.82,0.05,3.39
				c-0.98,2.3-2.88,5.17-4.91,8.22c-9.26,3.76-18.45,7.46-29.7,9.76c-11.46,2.34-24.8,3.17-35.39-1.34
				c-5.15-2.21-9.71-5.7-13.71-8.75c-3.94-3.02-7.9-6.19-11.1-5.89c-2.14,0.21-3.62,1.78-4.42,3.68
				c-1.89,4.51-0.77,12.24,5.09,17.76c0.48,0.46,0.99,0.9,1.55,1.33c-0.22,0.29-0.43,0.59-0.59,0.94
				c-1.82,4.35,2.4,10.61,10.24,14.96c4.16,2.3,9.58,4.24,14.77,5.79c-3.89-0.08-7.54,0.14-9.79,0.99
				c-1.46,0.53-2.59,1.41-3.14,2.67c-0.05,0.11-0.1,0.24-0.13,0.37c-0.13,0.4-0.18,0.8-0.18,1.22c0,4.62,7.47,9.87,16.08,12.58
				c-0.1,0.18-0.21,0.37-0.3,0.56c-0.27,0.64-0.38,1.3-0.38,1.95c0,2.38,1.65,4.83,3.84,6.82c2.64,2.38,6.53,4.58,11.55,6.29
				c5.02,1.71,11.18,2.98,18.38,3.5c14.4,1.06,33.26-0.77,47.39-6.74c1.42-0.61,2.82-1.25,4.14-1.94
				c6.11-3.09,11.33-6.88,16.32-10.5c4.77-3.46,9.31-6.75,14.34-9.3c11.47-5.82,25.6-7.82,38-8.77c12.35-0.94,22.82-0.8,33.33-0.67
				c0.69,0,1.3-0.5,1.41-1.18C2383.96,1796.36,2386.46,1780.92,2382.84,1772.72z M2227,1832.28c0.02-0.03,0.03-0.05,0.03-0.08h0.02
				L2227,1832.28z"/>
			<path d="M2227.05,1832.2l-0.05,0.08c0.02-0.03,0.03-0.05,0.03-0.08H2227.05z"/>
		</g>
		<g>
			<path class="st6" d="M3218.02,2960.27c-2.24-8.74-5.07-17.12-8.24-25.44c-3.18-8.34-6.7-16.61-10.3-25.12
				c-3.9-9.17-7.92-18.61-11.74-28.7c-5.49-14.43-10.61-30.19-14.94-46.66c-3.1-11.78-5.79-23.92-7.92-36.18
				c-0.86-4.88-1.63-9.79-2.29-14.7c-2.24-16.54-3.36-33.15-3.36-50.13c0-18.37,1.31-37.18,3.94-56.83c0.66-4.9,1.39-9.87,2.13-14.8
				c0.7-4.8,1.42-9.58,2.05-14.21c0.35-2.62,0.67-5.25,0.96-7.82c0.59-5.42,0.99-10.66,0.99-15.44c0-12.94-2.9-22.7-12.7-24.27
				c-0.88-0.14-1.79-0.21-2.77-0.21c-1.15,0-2.35,0.1-3.63,0.29c-12.77,1.95-33.7,14.1-58.86,31.55c-1.33,0.93-2.67,1.86-4.03,2.82
				c-26.96,18.96-58.38,43.52-89.62,67.92c-0.29,0.22-0.48,0.54-0.53,0.91c-1.36,9.44-2.74,18.91-2.74,30.85
				c0,9.41,0.85,20.35,3.23,34c2.5,14.27,6.66,31.55,11.76,50.46c0.4,1.49,0.82,3.01,1.23,4.53c5.66,20.67,12.37,43.17,19.18,65.76
				l2.69,8.88l2.69,8.91c5.97,19.78,11.95,39.81,17.71,60.64c5.76,20.82,11.28,42.43,16.34,65.36
				c5.81,26.38,11.01,54.51,15.66,82.45c4.67,27.94,8.8,55.68,12.51,81.28c3.71,25.6,6.98,49.02,9.31,69.66
				c2.35,20.64,3.78,38.5,3.82,52.96v0.8c0,17.58-2.06,30.13-3.74,40.3c-1.02,6.24-1.92,11.7-2.08,16.85
				c-0.02,0.58-0.03,1.17-0.03,1.74c0,12.98,4.56,24,9.01,34.74c0.14,0.35,0.42,0.64,0.77,0.77l32.4,12.91
				c0.38,0.16,0.82,0.13,1.18-0.06l0.18-0.1c8.82-4.77,17.76-9.6,25.57-15.18c7.82-5.58,14.51-11.94,18.83-19.74
				c3.63-6.59,5.57-14.16,6.66-22.48c1.07-8.3,1.33-17.34,1.58-26.85c0.1-3.63,0.19-7.34,0.35-11.14
				c0.46-11.86,1.41-24.43,2.7-37.71c1.3-13.28,2.96-27.25,4.85-41.87c0.94-7.26,1.95-14.72,2.98-22.3
				c1.07-7.94,2.18-16.06,3.25-24.35c2.03-15.71,4.02-32.08,5.62-49.1c1.63-17.31,2.9-35.3,3.78-53.15
				c0.9-17.86,1.39-35.58,1.52-52.38c0.02-2.56,0.03-5.1,0.03-7.63C3225.94,3012.54,3224.37,2985.09,3218.02,2960.27z
				 M2999.84,2704.21c-0.14,0.11-0.3,0.24-0.45,0.35l0.53-0.91C2999.89,2703.84,2999.87,2704.02,2999.84,2704.21z M3115.5,3411.58
				l0.56,0.22c0.08,0.18,0.14,0.37,0.22,0.54L3115.5,3411.58z M3146.72,3424.56l0.16-0.1c0.13-0.08,0.27-0.14,0.4-0.22l0.62,0.26
				L3146.72,3424.56z"/>
		</g>
		<polygon class="st9" points="942.11,3348.37 792.42,3343.95 799.85,3267.28 941.74,3274.36 		"/>
		<g>
			<path class="st6" d="M2923.18,2852.77c-1.3-10.59-2.96-21.17-4.62-31.79c-0.48-3.01-0.94-6.02-1.41-9.02
				c-1.2-7.74-2.35-15.49-3.31-23.31c-1.55-12.66-2.61-25.42-2.61-38.37c0-1.54,0.02-3.06,0.05-4.59c0.18-8.27,0.8-16.64,1.66-25.09
				s1.97-16.98,3.07-25.6c1.14-8.86,2.3-17.82,3.22-26.86c0.91-9.02,1.6-18.13,1.78-27.28c0.05-1.7,0.06-3.38,0.06-5.06
				c0-1.7-0.02-3.38-0.06-5.07c-0.13-5.68-0.48-11.44-1.1-17.1c-1.41-13.1-4.19-25.76-8.7-36.11
				c-6.46-14.85-16.48-24.99-31.12-24.99c-0.98,0-1.98,0.05-3.01,0.14c-15.23,1.41-34.98,13.65-56.9,31.22
				c-6.61,5.28-13.39,11.06-20.32,17.15c-16.08,14.18-32.88,30.13-49.57,45.98c-0.21,0.19-0.35,0.45-0.42,0.72l-0.05,0.22
				c-3.09,14.43-6.18,28.98-6.18,58.1c0,3.6,0.05,7.42,0.14,11.5c0.29,11.73,1.01,25.54,1.97,40.53c0.11,1.81,0.24,3.63,0.35,5.47
				c0.9,13.42,1.94,27.66,2.99,42.13c1.41,19.14,2.83,38.69,3.97,57.17c2.77,45.36,3.74,84.56,3.74,130.66
				c0,5.01-0.02,10.1-0.03,15.28c-0.08,15.76-0.24,32.26-0.4,49.12c-0.18,17.25-0.34,34.54-0.42,51.44
				c-0.02,5.06-0.03,10.08-0.03,15.02c0,16.69,0.13,32.58,0.5,46.86c0.24,9.04,0.56,17.42,0.91,25.36
				c0.37,7.94,0.77,15.42,1.17,22.62c0.67,12.5,1.3,24.13,1.6,35.89c0.11,4.61,0.19,9.23,0.19,13.94c0,4.98-0.08,10.03-0.26,15.23
				c-0.62,18.59-2.45,39.1-4.64,58c-2.19,18.88-4.74,36.14-6.75,48.18c-0.54,3.22-1.06,6.11-1.5,8.64
				c-0.37,2.11-0.69,3.86-0.98,5.62c-0.74,4.38-1.18,7.73-1.18,10.59c0,5.01,1.36,8.62,4.93,13.87c3.49,5.17,9.31,12.26,15.73,18.37
				c6.42,6.13,13.42,11.28,19.31,12.58c1.06,0.22,2.08,0.34,3.09,0.34c3.25,0,6.13-1.17,8.83-2.93c2.69-1.74,5.2-4.06,7.73-6.38
				c3.25-2.98,6.59-6.03,10.59-8.43c2.66-1.6,5.63-2.91,8.74-4.29c3.22-1.42,6.58-2.9,9.74-4.8c3.44-2.08,6.66-4.64,9.25-8.16
				s4.59-8,5.6-13.9c0.61-3.55,0.86-7.62,0.86-12.13c0-9.73-1.18-21.46-2.45-34.21c-1.57-15.71-3.3-33.09-3.3-50.64
				c0-2.69,0.05-5.36,0.13-8.03c0.66-20.61,4.08-41.15,8.91-61.66c4.82-20.54,11.04-41.06,17.28-61.63
				c3.98-13.57,7.95-27.14,12.14-42c4.18-14.86,8.58-31.02,13.42-49.76c4.83-18.74,10.1-40.06,14.86-61.89
				c4.77-21.84,9.01-44.18,11.79-64.91c2.9-21.52,4.21-41.33,4.21-60.32C2926.4,2886.7,2925.26,2869.74,2923.18,2852.77z
				 M2752.62,2648.32l-0.05,0.22c-0.02,0.06-0.03,0.14-0.05,0.21c-0.1,0.1-0.21,0.19-0.3,0.29L2752.62,2648.32z"/>
		</g>
		<path class="st9" d="M2921.01,2630.72c0.05,1.7,0.06,3.38,0.06,5.07c0,1.68-0.02,3.36-0.06,5.06c-0.18,9.15-0.86,18.26-1.78,27.28
			c-0.91,9.04-2.08,18-3.22,26.86c-1.1,8.62-2.21,17.15-3.07,25.6s-1.49,16.82-1.66,25.09c-0.03,1.54-0.05,3.06-0.05,4.59
			c0,12.94,1.06,25.71,2.61,38.37c0.96,7.82,2.11,15.57,3.31,23.31c-71.38-10.3-130.45-30.83-171.04-48.4
			c-0.11-1.84-0.24-3.66-0.35-5.47c-0.96-14.99-1.68-28.8-1.97-40.53c-0.1-4.08-0.14-7.9-0.14-11.5c0-29.12,3.09-43.66,6.18-58.1
			l0.05-0.22c0.06-0.27,0.21-0.53,0.42-0.72c16.69-15.86,33.49-31.81,49.57-45.98l120.05,12.59
			C2920.53,2619.28,2920.88,2625.04,2921.01,2630.72z"/>
		<path class="st9" d="M3168.29,2639.68c-0.29,2.58-0.61,5.2-0.96,7.82c-0.62,4.62-1.34,9.41-2.05,14.21
			c-0.74,4.93-1.47,9.9-2.13,14.8c-2.62,19.65-3.94,38.46-3.94,56.83c0,16.98,1.12,33.58,3.36,50.13c0.66,4.91,1.42,9.82,2.29,14.7
			c-54.51,14.48-106.78,20.3-155.47,20.38c-5.1-18.91-9.26-36.19-11.76-50.46c-2.38-13.65-3.23-24.59-3.23-34
			c0-11.94,1.38-21.41,2.74-30.85c0.05-0.37,0.24-0.69,0.53-0.91c31.23-24.4,62.66-48.96,89.62-67.92c1.36-0.96,2.7-1.89,4.03-2.82
			L3168.29,2639.68z"/>
		<g>
			<path class="st10" d="M2928.96,1552.4c-0.26-18.9-4.78-34.82-11.42-49.22c-6.62-14.4-15.36-27.28-24.03-40.06
				c-0.3-0.46-0.85-0.7-1.39-0.61c-10.32,1.79-20.7,3.58-31.73,9.38c-11.04,5.78-22.74,15.54-35.71,33.22
				c-8.8,12-18.19,27.65-27.81,44.99c-9.6,17.33-19.44,36.34-29.1,55.01c-4.5,8.67-8.94,17.3-13.33,25.65
				c-4.38,8.35-8.7,16.45-12.91,24.08c-11.15,20.22-21.54,37.25-30.78,51.57c-9.25,14.32-17.36,25.94-23.92,35.34
				c-2.51,3.58-4.75,6.8-6.82,9.79c-12.13,17.73-15.63,25.18-18.69,32.1c-11.52-3.33-23.07-6.67-35.09-9.6
				c-12.43-3.02-25.39-5.6-39.31-7.31c-12.51-1.54-25.84-2.35-39.22-2.82c-13.38-0.46-26.82-0.56-39.58-0.64
				c-3.23-0.03-5.22-0.05-8.38-0.08h-0.02c-13.82-0.13-26.66-0.34-38.94-0.64c-12.3-0.32-24.06-0.74-35.74-1.28
				c-8.1-0.37-16.14-0.8-24.18-1.26c-15.14-0.88-30.19-1.9-45.26-2.91h-0.02c-0.46-0.03-0.91,0.16-1.2,0.51
				c-0.29,0.37-0.38,0.83-0.26,1.28l0.05,0.14c1.23,4.26,2.43,8.48,3.33,12.77c0.91,4.29,1.52,8.67,1.54,13.25v0.38
				c0,9.14-2.26,19.17-4.58,29.39c-0.14,0.64,0.18,1.28,0.75,1.57c5.82,2.86,11.66,5.71,19.04,8.98c5.57,2.46,11.98,5.17,19.94,8.29
				c2.61,1.02,5.39,2.08,8.37,3.2c11.98,4.51,27.06,9.87,43.82,15.28c16.75,5.39,35.22,10.86,53.98,15.62
				c18.78,4.75,37.86,8.8,56.22,12.27c18.38,3.46,36.05,6.35,52,8.8c15.95,2.45,30.21,4.45,43.92,6.13
				c13.73,1.66,26.93,3.01,40.8,4.13c8.86,0.72,18.03,1.34,27.3,1.34c19.65,0,39.68-2.83,57.89-13.74
				c13.36-8,25.68-20.3,37.02-35.09c11.34-14.78,21.71-32.05,31.2-49.94c9.49-17.95,18.13-36.59,26.38-56.26
				c8.24-19.65,16.1-40.29,24.06-62.24c15.66-43.14,31.82-91.62,31.82-129.02C2928.98,1553.55,2928.96,1552.98,2928.96,1552.4z
				 M2891.7,1465.44c-0.18-0.26-0.34-0.5-0.51-0.75l1.41,0.61C2892.29,1465.34,2892,1465.39,2891.7,1465.44z"/>
		</g>
		<g>
			<path class="st8" d="M3340.61,2617.42c-7.41-13.34-14.8-26.69-22.3-43.9c-0.46-1.07-0.94-2.16-1.41-3.28
				c-3.47-8.14-6.96-17.17-10.48-27.44c-3.66-10.66-7.34-22.67-11.09-36.45c-1.87-6.88-3.74-14.19-5.62-21.89
				c-2.19-8.96-4.38-18.43-6.54-28.32c-3.81-17.28-7.54-35.86-11.07-55.12c-7.3-39.74-13.82-82.56-18.58-123.73
				c-2.45-21.23-4.43-42.05-6.34-62.18c-1.79-18.86-3.54-37.12-5.55-54.61c-2.08-18.1-4.48-35.38-7.55-51.6
				c-3.06-16.22-6.82-31.38-11.62-45.25c-5.09-14.7-11.36-27.94-18.11-40.29c-6.77-12.35-14.02-23.82-21.07-34.98
				c-6.26-9.92-12.37-19.57-17.86-29.39c-5.49-9.82-10.37-19.82-14.18-30.42c-7.98-22.19-11.28-47.06-11.28-73.7
				c0-27.49,3.52-56.86,9.06-87.17c2.4-13.09,5.17-26.32,8.18-39.82c2.99-13.52,6.22-27.28,9.55-41.44
				c3.7-15.76,7.5-31.98,11.22-48.78c3.7-16.82,7.31-34.22,10.64-52.37c0.99-5.39,1.95-10.83,2.88-16.37
				c5.14-30.51,9.39-63.49,9.39-93.31c0-43.87-9.22-80.9-38.4-93.1c-4.96-2.08-10.45-3.41-16.43-4.11
				c-3.31-0.38-6.8-0.58-10.42-0.58c-54.05,0-140.7,41.55-226.72,82.74c-0.19,0.1-0.35,0.22-0.48,0.38l-0.16,0.21
				c-16.75,20.64-33.55,41.33-47.97,65.07c-14.42,23.73-26.45,50.5-33.68,83.26c-4.77,21.65-7.46,45.89-9.09,71.5
				c-1.63,25.6-2.21,52.54-2.8,79.6c-0.59,27.86-1.2,55.79-2.94,82.56c-2.58,39.39-7.6,76.21-14.7,114.98s-16.29,79.47-27.14,126.62
				c-10.85,47.17-23.36,100.75-36.61,153.46c-13.23,52.7-27.2,104.51-40.98,148.18c-1.31,4.14-2.61,8.19-3.92,12.19
				c-5.54,17.06-11.07,32.82-16.56,47.58c-4.03,10.82-8.03,21.07-12.03,30.91c-2.77,6.8-5.52,13.38-8.27,19.79
				c-3.49,8.13-6.96,15.98-10.43,23.63c-9.95,21.9-19.86,42.16-29.78,62.42c-0.18,0.37-0.19,0.8-0.02,1.18
				c7.23,16.38,14.5,32.86,24.29,48.72s22.13,31.12,39.49,45.09c17.33,13.94,39.65,26.58,66.88,37.82
				c27.23,11.25,59.39,21.07,96.38,29.42c16.1,3.62,33.12,6.98,50.67,9.94s35.62,5.55,53.81,7.68c33.94,3.94,68.3,6.24,100.5,6.24
				c12.62,0,24.91-0.37,36.7-1.1c37.04-2.34,69.22-8.51,97.14-17.54c27.94-9.02,51.62-20.91,71.71-34.64
				c20.1-13.71,36.58-29.28,51.25-45.73c14.67-16.45,27.52-33.78,40.34-51.07C3340.83,2618.5,3340.86,2617.9,3340.61,2617.42z
				 M2613.9,2584.16l0.02-1.18c0.1,0.21,0.18,0.4,0.27,0.61L2613.9,2584.16z M2910.61,1462.74l-0.16,0.19
				c-0.02,0.02-0.03,0.05-0.05,0.06c-0.1,0.05-0.18,0.08-0.27,0.13L2910.61,1462.74z M3338.14,2618.78
				c-0.14-0.27-0.29-0.53-0.45-0.8c0.19-0.24,0.37-0.48,0.54-0.72L3338.14,2618.78z"/>
		</g>
		<g>
			<path class="st11" d="M3123.78,1349.47c-0.13-0.07-0.28-0.1-0.43-0.13l-121.48-19.98c-0.67-0.12-1.32,0.25-1.58,0.88
				l-39.42,93.23c-10.81,23.93-21.63,47.84-32.39,70.53c-10.76,22.68-21.48,44.13-32.12,63.13c-2.22,3.97-4.47,7.88-6.61,11.64
				c-2.07,3.61-4.08,7.1-6,10.53c-8.73,15.63-15.64,29.84-15.64,42.82c0,9.52,3.72,18.36,13.2,26.58c4.7,4.07,10.8,7.98,17.94,11.43
				c7.15,3.44,15.36,6.41,24.27,8.66c10.78,2.7,22.64,4.32,35,4.32c27.12,0,56.65-7.78,82.32-28.96
				c28.27-23.31,51.78-62.76,69.58-103.86c17.78-41.09,29.86-83.79,35.24-113.54c2.47-13.59,3.53-24.54,3.53-33.47
				C3149.18,1362.75,3136.62,1356,3123.78,1349.47z M3122.88,1352.27l-0.18-0.03c-0.08-0.03-0.15-0.08-0.23-0.12L3122.88,1352.27z
				 M3002.98,1331.39l-0.45,1.06l-1.13-0.19L3002.98,1331.39z"/>
		</g>
		<g>
			<path class="st12" d="M3113.98,1348.42c-0.12-0.06-0.25-0.1-0.38-0.13l-105.57-18.94c-0.58-0.11-1.14,0.24-1.38,0.83
				l-34.26,88.38c-9.4,22.69-18.79,45.36-28.15,66.86c-9.35,21.5-18.66,41.84-27.92,59.86c-1.93,3.76-3.88,7.47-5.75,11.04
				c-1.8,3.42-3.55,6.74-5.21,9.98c-7.59,14.82-13.6,28.29-13.6,40.59c0,9.02,3.23,17.41,11.47,25.2
				c4.08,3.86,9.38,7.57,15.59,10.83c6.21,3.26,13.35,6.08,21.1,8.21c9.37,2.56,19.68,4.1,30.42,4.1c23.57,0,49.23-7.38,71.54-27.46
				c24.57-22.1,45-59.5,60.46-98.46c15.45-38.96,25.95-79.44,30.62-107.65c2.14-12.88,3.07-23.26,3.07-31.73
				C3136.06,1361.01,3125.14,1354.61,3113.98,1348.42z M3113.2,1351.08l-0.16-0.03c-0.07-0.03-0.13-0.08-0.2-0.11L3113.2,1351.08z
				 M3009.01,1331.28l-0.39,1.01l-0.98-0.18L3009.01,1331.28z"/>
		</g>
		<g>
			<path class="st5" d="M3176.62,1317.49l-203.3-62.91c-0.4-0.13-0.83-0.06-1.18,0.18c-0.35,0.22-0.58,0.59-0.62,1.01
				c-2.19,18.8-4.38,37.5-7.86,54.82c-3.49,17.33-8.27,33.28-15.65,46.58c-5.23,9.44-11.81,17.57-19.02,25.02
				c-7.22,7.46-15.1,14.24-22.96,21.01c-6.35,5.49-12.7,10.96-18.66,16.74c-10.29,10.03-19.36,21.01-26.42,32.8
				c-7.06,11.79-12.11,24.4-14.38,37.68c-1.04,6.06-1.5,12.27-1.5,18.5c0,21.01,5.2,42.42,10.75,60.51
				c3.62,11.76,7.41,22.18,11.28,31.92c3.87,9.74,7.82,18.82,11.78,27.89c0.27,0.62,0.96,0.96,1.63,0.8
				c0.66-0.18,1.1-0.78,1.06-1.47c-1.26-17.68-2.51-35.23-2.51-51.09c0-18.03,1.62-33.89,6.62-45.28
				c2.96-6.72,7.1-11.89,12.11-16.48c5.01-4.58,10.88-8.58,17.28-12.91c3.68-2.48,7.5-5.09,11.42-7.97c3.9-2.9,7.9-6.06,11.87-9.7
				c5.28-4.85,10.53-10.48,15.95-16.29c5.87-6.3,11.95-12.82,18.54-18.85c6.18-5.65,12.78-10.85,20.06-15.01
				c7.28-4.18,15.23-7.31,24.08-8.83c4.99-0.86,10.29-1.22,15.79-1.22c12.29,0,25.62,1.76,38.91,3.52
				c12.85,1.7,25.7,3.39,37.38,3.39c5.07,0,9.95-0.32,14.5-1.1c4.21-0.72,8.18-1.84,11.82-3.49c15.02-6.78,24.06-22.21,30.1-41.76
				c6.05-19.54,9.07-43.2,12.1-66.48C3177.68,1318.32,3177.26,1317.68,3176.62,1317.49z M2974.11,1257.76l-1.62-0.5l1.81-1.18
				C2974.24,1256.64,2974.17,1257.2,2974.11,1257.76z M3174.64,1319.83c0.06-0.4,0.11-0.78,0.16-1.18l0.99,1.54L3174.64,1319.83z"/>
		</g>
		<g>
			<path class="st6" d="M3104.81,1333.59c-0.29-0.27-0.69-0.42-1.1-0.38l-82.42,7.98c-0.59,0.05-1.09,0.46-1.23,1.04l-18.27,69.41
				l-14.35,54.53c-0.11,0.46,0,0.94,0.32,1.3c0.3,0.35,0.78,0.53,1.25,0.46l108.21-15.7c0.67-0.1,1.17-0.64,1.22-1.3l4.62-78.77
				l2.19-37.47C3105.28,1334.28,3105.12,1333.88,3104.81,1333.59z M2990.16,1466.88l-1.55-1.74l2.1-0.3L2990.16,1466.88z
				 M3095.61,1450.76l0.06-1.15l1.14-0.16L3095.61,1450.76z M3022.78,1342.95l-0.26,0.94l-0.96,0.1L3022.78,1342.95z
				 M3102.35,1336.16l0.1-1.63l1.54,1.47L3102.35,1336.16z"/>
		</g>
		<path class="st12" d="M2996.15,1433.05c0,0,2.73,44.29,109.1-5.25l24,42.62l-89.86,21.86l-74.88-10.92L2996.15,1433.05z"/>
		<path class="st9" d="M3105.24,1334.69l-2.19,37.47c-27.9,21.95-71.9,33.71-101.26,39.47l18.27-69.41
			c0.14-0.58,0.64-0.99,1.23-1.04l82.42-7.98c0.42-0.03,0.82,0.11,1.1,0.38C3105.12,1333.88,3105.28,1334.28,3105.24,1334.69z"/>
		<g>
			<path class="st6" d="M3155.92,1112.74c-5.73-14.46-13.6-26.34-22.56-36.22c-8.98-9.89-19.04-17.78-29.17-24.29
				c-4.8-3.09-9.63-5.86-14.5-8.27c-4.85-2.4-9.74-4.43-14.67-6.02c-7.65-2.45-15.39-3.82-23.22-3.82c-3.36,0-6.74,0.26-10.13,0.78
				c-10.67,1.65-21.44,6.02-32.22,11.71c-10.78,5.7-21.58,12.72-32.29,19.68c-0.1,0.06-0.19,0.14-0.27,0.22
				c-7.3,7.84-14.64,15.7-21.5,26.06c-6.88,10.37-13.28,23.25-18.74,41.1c-5.42,17.79-9.9,40.51-13.1,63.94
				c-3.18,23.42-5.07,47.55-5.33,68.13c-0.02,1.66-0.03,3.31-0.03,4.93c0,38.42,6.02,64.27,18.61,81.17
				c3.94,5.28,8.5,9.66,13.74,13.26c5.23,3.62,11.17,6.43,17.84,8.58c4.48,1.44,9.28,2.56,14.45,3.42
				c5.15,0.85,10.66,1.44,16.53,1.79c4.19,0.26,8.59,0.38,13.1,0.38c26.88,0,58.37-4.53,80.9-15.07
				c13.23-6.21,23.36-14.46,31.55-24.35c8.21-9.89,14.5-21.39,20.08-34.1c5.58-12.69,10.5-26.64,14.35-41.76
				c3.86-15.1,6.67-31.38,8.08-48.72c0.64-8.05,0.99-16.35,0.99-24.69C3168.41,1163.04,3164.68,1134.9,3155.92,1112.74z
				 M2978.96,1068.44l-0.14,0.14c-0.03,0.03-0.08,0.05-0.11,0.08L2978.96,1068.44z"/>
		</g>
		<g>
			<path class="st5" d="M3388.68,1585.33c-0.26-0.45-0.74-0.74-1.25-0.74c-1.97,0.02-3.89,0.03-5.84,0.03
				c-10.54,0-20.29-0.43-27.76-3.2c-7.49-2.75-12.72-7.84-14.26-17.14c-0.16-1.01-0.29-2.06-0.37-3.18
				c-0.1-1.31-0.14-2.67-0.14-4.11c0-9.87,2.26-22.54,4.72-36.19c2.74-15.3,5.7-31.76,5.7-46.37c0-2.4-0.08-4.75-0.26-7.04
				c-0.98-12.72-4.85-23.44-10.45-33.18c-5.58-9.74-12.9-18.51-20.74-27.28c-2.05-2.27-4.1-4.54-6.19-6.85
				c-2.1-2.3-4.32-4.74-6.45-7.1c-18.66-20.88-37.14-44.67-37.14-78.08c0-3.38,0.18-6.83,0.58-10.4c1.01-9.17,3.39-19.04,6.51-29.44
				c3.14-10.42,7.01-21.34,10.99-32.62c4.53-12.78,9.22-26,13.1-39.34c3.89-13.34,6.99-26.82,8.35-40.1
				c0.56-5.41,0.82-10.78,0.82-16.11c0-43.89-18.06-84.4-41.82-112.27c-13.33-15.65-28.46-27.3-44.06-36.14
				c-15.6-8.85-31.68-14.86-46.93-19.23c-9.25-2.64-18.22-4.69-26.88-6.08c-8.64-1.38-16.96-2.1-24.94-2.1
				c-10.35,0-20.1,1.22-29.18,3.78c-11.5,3.25-21.87,8.64-31.65,15.09c-9.78,6.45-18.96,13.94-28.06,21.39l-0.18,0.14
				c-0.37,0.3-0.56,0.77-0.5,1.25c0.05,0.46,0.34,0.88,0.77,1.1c17.17,8.51,34.24,16.98,49.63,26.93
				c15.41,9.94,29.12,21.36,39.6,35.79c17.76,24.45,26.29,57.65,26.29,94c0,6.48-0.27,13.07-0.82,19.71
				c-1.76,21.97-6.45,44.66-12.58,66.08c-6.13,21.42-13.7,41.55-21.25,58.45c-3.23,7.22-6.43,13.81-9.5,20.14
				c-11.17,22.98-20.43,42.05-20.43,70.5v1.09c0.03,2.45,0.13,5.04,0.27,7.62c0.54,9.14,1.82,19.02,3.46,29.23
				c1.65,10.21,3.65,20.75,5.65,31.2c1.95,10.24,3.89,20.37,5.46,30.05s2.77,18.91,3.26,27.3c0.18,3.01,0.26,5.9,0.26,8.7
				c0,31.01-10.27,50.16-20.66,69.52c-0.22,0.45-0.21,0.99,0.05,1.41c0.27,0.43,0.75,0.69,1.25,0.67
				c10.24-0.37,20.62-0.72,30.75-2.91c10.11-2.21,19.98-6.26,29.2-14.02c5.3-4.46,10.37-10.13,15.33-15.7
				c5.44-6.08,10.7-11.92,16.11-16.26c5.39-4.34,10.91-7.15,16.86-7.15c1.76,0,3.57,0.24,5.42,0.78c3.97,1.14,8.22,3.58,12.77,7.04
				c4.56,3.47,9.3,7.87,14.16,12.8c4.88,4.93,9.89,10.38,15.01,15.94c5.38,5.84,10.85,11.79,16.37,17.34
				c5.52,5.54,11.06,10.67,16.56,14.86c7.39,5.63,14.72,9.57,21.84,12.11c7.14,2.53,14.08,3.65,20.72,3.65
				c5.34,0,10.46-0.74,15.31-2.02c4.85-1.31,9.42-3.17,13.68-5.44c9.49-5.07,17.31-12.19,24.27-20.29
				c6.96-8.11,13.07-17.18,19.12-26.16C3388.91,1586.36,3388.92,1585.8,3388.68,1585.33z M3036.88,1013.49l-0.18,0.14l-0.27-2.35
				c0.66,0.32,1.31,0.66,1.97,0.98C3037.88,1012.66,3037.39,1013.08,3036.88,1013.49z"/>
		</g>
		<g>
			<path class="st8" d="M3156.43,1187.35c0,0.06-0.02,0.13-0.02,0.19l0.03,0.18L3156.43,1187.35z M3146.43,1131l0.06,0.13l-0.1-0.34
				L3146.43,1131z M3127.16,1088.92l0.21,0.19l-0.3-0.42L3127.16,1088.92z M3092,1054.92l0.19,0.1l-0.38-0.27L3092,1054.92z
				 M3049.32,1035.01l0.26,0.03l-0.43-0.11L3049.32,1035.01z"/>
			<path class="st8" d="M3196.64,1121.27c-0.7-10.53-1.92-20.67-4.3-30.32c-2.38-9.65-5.94-18.78-11.3-27.25
				c-5.34-8.43-12.46-16.16-20.34-23.26c-7.87-7.1-16.46-13.58-24.75-19.52c-8.3-5.94-16.38-11.39-24.53-15.97
				c-8.14-4.58-16.35-8.29-24.91-10.69c-0.48-0.13-0.98-0.27-1.47-0.4c-10.14-2.67-20.67-3.58-30.11-3.58
				c-6.05,0-11.66,0.37-16.43,0.9c-6.29,0.69-11.23,1.66-15.31,3.26c-4.06,1.62-7.25,3.86-10.02,7.1c-5.38,6.32-9.01,16.35-12.54,26
				c-0.14,0.42-0.1,0.86,0.13,1.23c0.22,0.37,0.61,0.61,1.02,0.66l47.55,5.58l-0.18-0.08l0.43,0.11l-0.26-0.03l42.67,19.9
				l-0.19-0.18l0.38,0.27l-0.19-0.1l35.17,34l-0.1-0.22l0.3,0.42l-0.21-0.19l19.26,42.08l-0.03-0.21l0.1,0.34l-0.06-0.13l9.98,56.54
				c0-0.06,0.02-0.13,0.02-0.19l0.02,0.37l-0.03-0.18c-1.31,16.06-2.8,33.2-2.8,45.92c0,11.01,1.12,18.72,4.45,19.6
				c0.27,0.06,0.53,0.1,0.8,0.1c3.79,0,9.52-8.48,15.26-20.29c5.73-11.79,11.47-26.93,15.3-40.22c5.9-20.53,7.79-38.4,7.79-54.88
				C3197.21,1132.13,3196.99,1126.64,3196.64,1121.27z M3003.26,1028.52l-1.15-1.89l1.76,0.21
				C3003.68,1027.4,3003.47,1027.96,3003.26,1028.52z"/>
		</g>
		<g>
			<path class="st5" d="M3176.88,1149.44c0,22.93-3.22,49.63-8.06,66.86c-2.94,10.45-6.5,17.47-10.51,22.53
				c-4.02,5.04-8.5,8.1-13.28,10.61c-4.69,2.45-9.65,4.38-14.74,6.05c-5.07,1.66-10.26,3.06-15.41,4.43
				c-0.72,0.19-1.46-0.21-1.7-0.91c-6.56-19.41-13.22-39.1-14.22-54.22c-0.1-1.42-0.14-2.82-0.14-4.18c0-12.35,3.81-21.54,7.71-30.4
				l-36.8-7.63c-0.56-0.11-0.98-0.54-1.09-1.09c-2.27-11.02-4.58-22.19-4.58-34.11c0-2.78,0.11-5.6,0.4-8.46
				c0.05-0.5,0.1-0.98,0.18-1.47c0.82-7.12,2.53-14.5,4.74-22c0.58-1.98,1.2-3.97,1.84-5.97c1.49-4.7,3.12-9.42,4.78-14.16
				c-4.83,3.38-9.55,6.8-13.89,10.59c-5.87,5.09-11.04,10.85-14.88,18.02c-2.05,3.84-3.73,8.06-5.12,12.61
				c-1.15,3.68-2.13,7.57-2.96,11.6c-1.87,8.99-3.15,18.7-4.42,28.53c-0.05,0.38-0.26,0.72-0.56,0.94c-0.3,0.22-0.69,0.32-1.06,0.26
				L2920,1139.98c-0.75-0.13-1.28-0.82-1.18-1.57l0.02-0.06c1.14-8.91,2.26-17.87,3.81-26.51c1.55-8.64,3.5-16.96,6.26-24.58
				c2.78-7.66,6.37-14.59,10.64-21.01c0.19-0.29,0.38-0.58,0.59-0.86c4.14-6.1,8.93-11.73,14.21-17.09
				c5.54-5.62,11.66-10.94,18.69-15.71c2.22-1.5,4.53-2.96,6.94-4.32c5.2-2.99,10.86-5.66,17.09-7.92
				c13.68-4.96,30.05-7.95,46.18-7.95c5.28,0,10.54,0.32,15.66,0.99c7.66,1.01,15.04,2.8,22.13,5.26
				c6.08,2.13,11.97,4.74,17.65,7.76c5.68,3.02,11.15,6.46,16.43,10.24c8.34,5.95,16.18,12.77,23.28,20.03
				c7.1,7.26,13.46,14.98,18.83,22.75c5.41,7.81,9.81,15.7,13.06,24.78c3.26,9.07,5.38,19.34,6.21,31.95
				C3176.75,1140.37,3176.88,1144.83,3176.88,1149.44z"/>
		</g>
		<g>
			<path class="st6" d="M2724.57,1723.06l-20.46,44.1c-0.32,0.69-1.14,0.99-1.82,0.69l-0.29-0.11c-7.41-3.17-14.82-6.32-22.34-9.23
				c-7.54-2.91-15.18-5.58-23.14-7.78c-7.98-2.19-16.29-3.92-24.62-5.14c-8.35-1.22-16.74-1.92-24.94-2.11
				c-1.84-0.03-3.68-0.05-5.52-0.05c-2,0-4.05,0.02-6.03,0.03c-2.02,0.02-3.97,0.03-5.97,0.03c-5.18,0-10.35-0.11-15.54-0.66
				c-5.2-0.53-10.4-1.49-15.65-3.17c-8.18-2.62-16.38-6.98-24.11-12.08c-7.71-5.1-14.94-10.96-21.12-16.53
				c-6.11-5.52-11.36-10.91-15.17-15.74c-3.84-4.86-6.24-9.17-6.69-12.54c-0.05-0.4-0.08-0.78-0.08-1.17c0-3.28,2.03-5.58,5.57-6.06
				c0.46-0.06,0.94-0.1,1.44-0.1c1.65,0,3.52,0.32,5.63,1.01c2.1,0.67,4.42,1.68,6.93,3.07c3.71,2.05,7.9,4.94,11.9,7.94
				c3.09,2.29,6.06,4.62,8.64,6.69c-0.9-1.12-1.82-2.3-2.74-3.52c-1.65-2.19-3.3-4.53-4.64-6.8c-1.33-2.26-2.37-4.42-2.77-6.27
				c-0.14-0.64-0.21-1.23-0.21-1.79c0-3.36,2.35-5.34,5.5-6.03c0.94-0.21,1.97-0.3,3.04-0.3c3.98,0,8.8,1.33,13.06,3.65
				c4.59,2.51,8.51,6.18,12.43,9.82c4.26,3.95,8.51,7.9,13.78,10.78c0.16,0.08,0.27,0.14,0.43,0.22c3.42,1.81,7.26,3.17,11.14,4.06
				c3.86,0.9,7.74,1.34,11.2,1.34c3.66,0,6.72-0.51,8.77-1.41c2.56-1.1,3.6-2.83,3.6-4.64c0-0.74-0.16-1.47-0.48-2.19
				c-0.62-1.44-1.86-2.83-3.57-3.81c-2.67-1.52-6.48-2.05-11.02-2.64c-3.84-0.51-8.1-1.07-12.1-2.48
				c-6.72-2.35-14.24-7.87-14.24-12.67c0-0.5,0.08-0.98,0.24-1.44c0.13-0.37,0.3-0.7,0.54-1.02c1.36-1.9,4.75-2.99,8.67-3.66
				c3.9-0.66,8.35-0.9,11.78-1.1c0.88-0.05,1.74-0.11,2.53-0.16c0.96-0.06,1.84-0.13,2.69-0.19c0.75-0.06,1.44-0.13,2.14-0.16
				c1.3-0.1,2.53-0.16,3.79-0.16c1.6,0,3.23,0.1,5.14,0.35c1.89,0.24,4.03,0.66,6.66,1.28c4.83,1.15,11.34,3.06,18.3,5.65
				c6.98,2.61,14.4,5.92,21.04,9.92c6.74,4.05,12.64,8.78,18.42,13.39c5.63,4.51,11.14,8.9,17.22,12.56
				c6.16,3.71,12.94,6.67,20.06,9.28c7.14,2.61,14.59,4.86,22.11,7.12c0.38,0.11,0.7,0.4,0.88,0.77
				C2724.75,1722.26,2724.75,1722.69,2724.57,1723.06z"/>
		</g>
		<g>
			<path class="st13" d="M2994.18,1270.02L2994.18,1270.02c-3.5,0.08-7.3,0.18-10.78-0.91l0,0c-2.04-0.64-3.98-1.68-5.73-3.36l0,0
				c-4.47-4.29-7.99-13.3-5.7-18.07l0,0c1.53-3.18,5.44-4.01,8.35-4.71l0,0c1.97-0.47,3.73-0.91,5.12-1.67l0,0
				c3.61-1.97,5.1-6.41,6.77-11.66c0.24-0.74,1.03-1.15,1.77-0.91c0.74,0.24,1.15,1.03,0.91,1.77l0,0
				c-1.56,4.92-3.31,10.66-8.1,13.28l0,0c-1.78,0.98-3.94,1.48-5.82,1.93l0,0c-3.41,0.82-5.65,1.47-6.47,3.19l0,0
				c-1.5,3.12,0.98,10.86,5.11,14.82l0,0c1.4,1.34,2.95,2.18,4.62,2.7l0,0c2.96,0.93,6.28,0.86,9.88,0.78
				c0.78-0.02,1.42,0.6,1.44,1.37C2995.57,1269.35,2994.96,1270,2994.18,1270.02z"/>
		</g>
		<g>
			<path class="st13" d="M2960.97,1294.7L2960.97,1294.7l10.26,11.08l-0.33-0.26l0.04,0.03l0,0c5.74,3.31,11.32,6.51,16.88,8.25l0,0
				c1.84,0.57,3.66,0.98,5.47,1.18l0,0c7.27,0.79,14.69-1.78,20.43-5.49l0,0c5.71-3.7,9.67-8.48,13.77-13.45
				c0.49-0.6,1.38-0.68,1.98-0.19s0.68,1.38,0.19,1.98l0,0c-4.07,4.93-8.29,10.05-14.41,14.02l0,0c-6.1,3.95-14.16,6.81-22.26,5.93
				l0,0c-2.02-0.22-4.02-0.67-6-1.29l0,0c-5.91-1.85-11.76-5.22-17.44-8.5l0,0l-0.04-0.03c-0.12-0.07-0.23-0.16-0.33-0.26l0,0
				l-10.26-11.08c-0.53-0.57-0.49-1.46,0.08-1.99S2960.44,1294.13,2960.97,1294.7z"/>
		</g>
		<g>
			<path class="st14" d="M1504.98,1905.04c-0.35-47.55-2.67-116.77-6-196.8c-1.6-38.66-3.44-79.81-5.39-122.29
				c-2.1-45.46-4.32-92.43-6.56-139.39c-0.02-0.22-0.08-0.43-0.18-0.62c-15.36-27.01-30.74-54.02-45.33-79.3
				c-14.59-25.28-28.43-48.82-40.72-68.88c-12.3-20.08-23.07-36.67-32.66-50.8c-9.6-14.14-18.02-25.81-25.62-36.03
				c-7.6-10.24-14.45-19.06-22.45-26.88c-8.02-7.82-17.18-14.62-29.49-20.83c-9.73-4.91-21.39-9.42-37.18-13.22
				c-4.13-0.99-8.53-1.94-13.26-2.82c-0.61-0.11-1.23-0.22-1.86-0.34c-17.81-3.23-40.06-5.66-68.77-7.02
				c-1.04,3.62-2.21,7.18-3.41,10.58c-3.26,9.18-6.96,17.44-11.12,25.31c-4.18,7.87-8.82,15.33-13.98,22.94
				c-1.14,1.68-2.32,3.39-3.47,5.06c-0.96,1.38-1.89,2.74-2.8,4.08c-0.21,0.29-0.4,0.58-0.59,0.85c-1.06,1.57-2.06,3.07-2.96,4.5
				c0.32-2.1,0.62-4.19,0.8-6.3c0.1-1.07,0.14-2.14,0.14-3.23c0-8.38-3.2-17.44-17.98-29.26c-10.45-8.35-26.59-17.98-43.97-26.64
				c-5.39-2.69-10.9-5.28-16.38-7.71c-24.61,1.15-49.9,3.07-74.32,6.03c-45.41,5.47-87.81,14.48-117.26,28.64
				c-7.65,3.68-14.42,7.7-20.42,12.03c-39.38,28.4-45.44,70.35-45.44,117.44c0,8.61,0.21,17.38,0.45,26.27
				c0.67,24.94,1.65,50.98,2.72,76.53c1.07,25.55,2.26,50.61,3.33,73.58c0.66,14.03,1.28,27.33,1.82,39.46
				c1.9,42.98,2.8,71.62,2.8,109.79c0,7.84-0.03,16.08-0.11,24.93c-0.21,25.97-0.72,57.2-1.62,87.92s-2.14,60.96-3.82,84.99
				c-0.77,10.91-1.62,20.54-2.5,29.31c-0.86,8.77-1.74,16.69-2.59,24.16c-1.34,12.06-2.58,23.01-3.39,34.56
				c-0.38,5.62-0.69,11.38-0.85,17.49c-0.08,3.33-0.13,6.75-0.13,10.27c0,32.5,4,71.71,18.03,95.12
				c7.86,13.09,18.82,21.17,32.67,26.54c13.87,5.36,30.62,8.02,50.1,10.29c19.54,2.27,41.98,4.13,65.92,5.65
				c23.94,1.52,49.38,2.67,74.91,3.5c25.87,0.83,51.84,1.34,78.34,1.34c24.78,0,50.05-0.45,76.11-1.49c1.04-0.03,2.1-0.06,3.14-0.11
				c27.54-1.14,56-2.93,83.89-5.86c27.87-2.94,55.18-7.01,80.4-12.72c25.22-5.71,48.34-13.04,68.22-20.61
				c19.9-7.57,36.58-15.36,48.91-21.98c24.32-13.06,31.92-22.22,31.92-106.34C1505.02,1912.99,1505.01,1909.09,1504.98,1905.04z
				 M1484.4,1447.33c-0.06-0.1-0.11-0.21-0.18-0.3c0-0.11-0.02-0.22-0.02-0.34L1484.4,1447.33z"/>
		</g>
		<path class="st8" d="M1493.58,1585.95l-50.03,26.88c-2.02-202.19-151.79-412.32-190.14-462.83c15.79,3.79,27.46,8.3,37.18,13.22
			c12.3,6.21,21.47,13.01,29.49,20.83c8,7.82,14.85,16.64,22.45,26.88c7.6,10.22,16.02,21.89,25.62,36.03
			c9.58,14.13,20.35,30.72,32.66,50.8c12.29,20.06,26.13,43.6,40.72,68.88c14.59,25.28,29.97,52.29,45.33,79.3
			c0.1,0.19,0.16,0.4,0.18,0.62C1489.26,1493.52,1491.49,1540.5,1493.58,1585.95z"/>
		<rect x="1410.43" y="1404.06" class="st15" width="566.78" height="542.05"/>
		<rect x="1531.39" y="1404.07" class="st16" width="101.95" height="375.64"/>
		<rect x="1930.81" y="3013.48" class="st17" width="566.78" height="463.73"/>
		<rect x="1732.42" y="1649.61" class="st16" width="135.36" height="296.5"/>
		<g>
			
				<rect x="1548.88" y="1494.37" transform="matrix(0.9205 0.3908 -0.3908 0.9205 804.3055 -522.7227)" class="st18" width="275.14" height="440.79"/>
			
				<rect x="1576.68" y="1545.95" transform="matrix(0.9205 0.3908 -0.3908 0.9205 807.296 -520.6654)" class="st11" width="212.43" height="354.39"/>
			
				<rect x="1662.75" y="1534.21" transform="matrix(0.9205 0.3908 -0.3908 0.9205 746.0549 -560.4637)" class="st19" width="174.6" height="37.15"/>
			<g>
				<path class="st5" d="M1776.51,1649.44c-0.54,0-1.09-0.11-1.62-0.34l-109.19-48.38c-2.02-0.9-2.93-3.26-2.04-5.28
					c0.9-2.02,3.26-2.93,5.28-2.04l109.19,48.38c2.02,0.9,2.93,3.26,2.04,5.28C1779.51,1648.55,1778.05,1649.44,1776.51,1649.44z"/>
			</g>
			<g>
				<path class="st5" d="M1763.53,1677.8c-0.54,0-1.09-0.11-1.62-0.34l-109.19-48.38c-2.02-0.9-2.93-3.26-2.04-5.28
					c0.9-2.02,3.26-2.93,5.28-2.04l109.19,48.38c2.02,0.9,2.93,3.26,2.04,5.28C1766.53,1676.91,1765.07,1677.8,1763.53,1677.8z"/>
			</g>
			<g>
				<path class="st5" d="M1750.72,1707.97c-0.54,0-1.09-0.11-1.62-0.34l-109.19-48.38c-2.02-0.9-2.93-3.26-2.04-5.28
					c0.9-2.02,3.26-2.93,5.28-2.04l109.19,48.38c2.02,0.9,2.93,3.26,2.04,5.28C1753.72,1707.09,1752.25,1707.97,1750.72,1707.97z"/>
			</g>
		</g>
		<g>
			<path class="st6" d="M1856.75,1755.78c0,1.2-0.19,2.43-0.62,3.65c-0.13,0.37-0.27,0.72-0.45,1.09c-1.41,2.94-4.29,5.79-7.82,8.51
				c-2.91,2.24-6.26,4.42-9.6,6.51c1.2,0.58,2.4,1.18,3.52,1.89c1.86,1.15,3.49,2.51,4.54,4.21c0.83,1.34,1.28,2.85,1.28,4.43
				c0,2.77-1.34,5.82-4.34,8.9c-2.3,2.37-5.65,4.82-9.34,7.17c-3.7,2.34-7.74,4.56-11.47,6.48c-6.69,3.41-12.5,5.92-18.16,8.29
				c2.22,1.9,4.43,4.16,4.82,6.88c0.05,0.3,0.06,0.61,0.06,0.91c0,3.34-2.62,6.7-6.94,9.81c-2.42,1.73-5.46,3.49-9.17,5.2
				c-3.71,1.71-8.06,3.38-13.07,4.94c-5.01,1.57-10.69,3.07-16.85,4.37c-6.16,1.3-12.8,2.42-19.76,3.25
				c-10.56,1.25-21.82,1.84-33.15,1.84c-3.58,0-7.17-0.06-10.75-0.18c-7.44-0.24-14.82-0.74-22.56-1.47
				c-7.74-0.77-15.86-1.78-24.74-3.07c-11.71-1.71-24.77-3.9-36.62-5.9c-6.14-1.02-11.97-2.02-17.1-2.83
				c-7.5-1.22-13.54-2.1-18.83-2.82s-9.86-1.28-14.43-1.84c-0.64-0.08-1.15-0.59-1.22-1.23l-9.12-74.83
				c-0.05-0.45,0.11-0.88,0.43-1.18c0.3-0.3,0.75-0.45,1.18-0.38c9.81,1.58,19.55,3.17,34.43,3.89c3.28,0.16,6.8,0.27,10.53,0.27
				c13.18,0,28.86-1.47,45.07-7.82c9.55-3.74,19.31-9.17,28.43-14.91c9.14-5.76,17.62-11.82,24.62-16.83
				c1.3-0.93,2.53-1.81,3.71-2.66c7.01-4.99,12.02-8.35,16.45-11.1c4.43-2.75,8.29-4.86,13.02-7.34c4.69-2.45,10.27-5.26,15.79-7.78
				c5.52-2.51,10.96-4.69,15.38-5.86c2.77-0.74,5.18-1.1,7.26-1.1c1.3,0,2.46,0.14,3.49,0.42c2.69,0.69,4.48,2.29,5.26,4.54
				c0.29,0.85,0.43,1.76,0.43,2.7c0,3.94-2.46,8.61-6.82,12.78c-3.31,3.17-7.84,6.19-12.75,9.47c-3.22,2.14-6.61,4.42-10.03,6.94
				c-8.14,6.05-14.27,12.13-14.27,15.9c0,0.64,0.18,1.22,0.54,1.71c0.02,0.02,0.02,0.02,0.02,0.03c0.5,0.66,1.36,1.26,2.54,1.86
				c1.18,0.58,2.69,1.1,4.51,1.58c5.89,1.54,13.94,2.14,20.45,2.14c0.64,0,1.28,0,1.89-0.02c4.83-0.08,8.42-0.53,11.97-1.33
				c3.52-0.8,7.01-1.95,11.57-3.49c0.66-0.22,1.36-0.45,2.08-0.69c9.36-3.1,23.78-7.73,32.72-7.73c0.98,0,1.87,0.06,2.7,0.18
				c0.53,0.06,1.04,0.18,1.52,0.29c7.02,1.84,7.65,8.59,7.68,14.62c4.22-2.24,8.86-4.35,12.9-3.3c0.22,0.05,0.45,0.11,0.66,0.19
				C1853.9,1747.25,1856.75,1751.25,1856.75,1755.78z"/>
		</g>
		<g>
			<path class="st6" d="M3182.67,1245.32c0,6.76-1.88,13.25-5.87,18.52c-3.23,4.31-7.8,7.75-12.83,10.36
				c-5.02,2.58-10.48,4.34-15.49,5.25c-2.86,0.52-5.61,0.76-8.22,0.76c-6.48,0-12.01-1.54-15.97-4.25c-2.19-1.5-3.87-3.33-5.22-5.32
				c-1.36-2.01-2.41-4.18-3.34-6.37c-0.48-1.19-0.95-2.4-1.43-3.61c-0.04-0.14-0.07-0.31-0.07-0.46c0.13-8,0.27-16.12,1.67-23.77
				c0.7-3.84,1.71-7.59,3.49-11.14c1.78-3.56,4.31-6.9,8.03-9.94c5.77-4.69,14.48-8.64,23.07-8.64c2.32,0,4.6,0.28,6.82,0.9
				c4.87,1.38,9.32,4.35,13.09,8.24c3.77,3.9,6.86,8.7,8.97,13.71c0.36,0.87,0.7,1.75,1.01,2.62
				C3181.9,1236.51,3182.67,1240.98,3182.67,1245.32z"/>
		</g>
		<g>
			<path class="st12" d="M3307.84,1536.21c0,11.22-0.75,24.02-2.66,38.72c-2.5,19.26-7.01,41.82-12.51,64.7
				c-5.5,22.88-12.03,46.1-18.54,66.67c-6.54,20.59-13.07,38.56-19.86,55.36c-6.78,16.78-13.79,32.43-21.28,48.35
				s-15.42,32.14-23.87,47.62c-8.45,15.46-17.38,30.13-26.83,42.93c-9.46,12.8-19.44,23.7-29.68,32.75
				c-10.26,9.04-20.77,16.24-31.28,21.62c-12.85,6.56-25.7,10.38-40.93,10.38c-9.86,0-20.7-1.6-33.18-5.1
				c-8.13-2.27-16.96-5.38-26.27-9.07c-13.47-5.36-27.98-12.03-42.96-19.44c-14.96-7.41-30.37-15.55-45.63-23.87
				c-16.8-9.15-33.42-18.54-49.76-27.94c-16.34-9.39-32.38-18.78-48.05-28l-10.43-6.13l-10.19-5.98
				c-18.69-10.99-36.72-21.55-53.06-30.93c-15.81-9.1-30.03-17.12-41.73-23.38c-0.38-0.21-0.77-0.42-1.14-0.61
				c-11.82-6.32-20.96-10.77-28.74-14.29c-7.78-3.52-14.19-6.11-20.61-8.7l-0.19-0.08c-0.43-0.18-0.75-0.56-0.85-1.02
				c-0.1-0.46,0.05-0.94,0.38-1.28c3.6-3.57,7.14-7.1,10.27-10.9c3.15-3.81,5.89-7.9,7.89-12.59c2-4.72,3.26-10.1,4.14-15.82
				c0.9-5.71,1.42-11.81,1.95-17.97c0.03-0.42,0.26-0.78,0.59-1.02c0.35-0.24,0.78-0.32,1.18-0.21l24.24,6.82
				c7.62,2.03,15.23,4.06,23.15,6.11c16.37,4.26,34.08,8.61,55.87,13.28c10.98,2.37,22.98,4.8,35.54,7.34
				c12.21,2.48,24.91,5.04,37.65,7.74c12.74,2.7,25.5,5.54,37.82,8.51c18.1,4.37,35.22,9.06,50.9,13.87
				c15.66,4.83,29.89,9.79,42.21,14.69c0.69,0.27,1.5,0.59,2.18,0.86c12.45,5.06,22.83,10.03,32.16,14.98
				c8.7,4.59,16.48,9.17,24.19,13.73c6.38-29.41,12.88-58.94,23.62-94.08c3.68-12.1,7.87-24.83,12.42-38.06
				c4.53-13.25,9.41-26.99,14.45-41.09c2.4-6.72,4.91-13.66,7.38-20.53c2.53-7.02,5.12-14.21,7.66-21.34l2-5.57
				c7.46-20.86,15.02-42.03,23.17-61.49c8.13-19.44,16.83-37.17,26.56-51.1c10.18-14.61,21.47-25.07,32.75-32.06
				c11.28-6.98,22.54-10.46,32.64-11.07c1.12-0.06,2.22-0.1,3.31-0.1c6.93,0,13.25,1.36,18.9,3.62c4.72,1.87,8.98,4.37,12.75,7.18
				c3.78,2.82,7.04,5.95,9.82,9.14c4.74,5.42,8,10.96,10.53,17.41c2.51,6.46,4.26,13.84,5.94,22.94
				C3305.89,1503.98,3307.84,1518.02,3307.84,1536.21z"/>
		</g>
		<path class="st8" d="M1238.29,1146.85c-0.34-3.02-0.91-6.06-1.78-9.15c-2.42-8.58-7.07-17.34-12.86-25.34s-12.7-15.22-19.65-20.7
			c-6.99-5.54-14.02-9.31-22.14-12.42c-8.13-3.12-17.33-5.57-28.67-8.43c-11.36-2.86-24.94-6.18-38.85-9.04
			c-13.9-2.88-28.13-5.31-40.72-6.45c-6.29-0.56-12.16-0.8-17.74-0.8c-16.85,0-30.94,2.21-44.93,4.42
			c-16.75,1.55-33.57,3.12-49.76,5.38c-16.24,2.24-31.87,5.17-46.26,9.47c-14.38,4.3-27.57,9.98-39.09,17.12
			c-11.52,7.15-21.38,15.76-29.17,25.9c-10.35,13.49-17.18,30-17.18,44.24c0,6.94,1.63,13.34,5.26,18.59
			c1.86,2.67,4.22,5.02,7.04,7.06c5.5,4.06,12.69,7.01,21.01,9.18c12.56,3.26,27.7,4.77,43.5,5.62c7.31,0.4,14.83,0.66,22.42,0.93
			c7.78,0.27,15.62,0.54,23.46,0.96c8.94,0.5,17.84,1.17,26.54,2.29c8.69,1.1,17.18,2.64,25.31,4.82c8.5,2.27,16.61,5.26,24.48,8.58
			c7.87,3.31,15.52,6.98,23.07,10.59c5.92,2.83,11.78,5.63,17.63,8.21c5.87,2.59,11.74,4.96,17.68,6.93
			c7.5,2.48,15.1,4.3,22.34,5.52c7.23,1.2,14.1,1.79,20.14,1.79c4.8,0,9.17-0.37,12.83-1.14c3.68-0.77,6.62-1.94,8.56-3.54
			c2.05-1.71,2.91-3.76,2.91-6.02c0-2.38-0.96-4.99-2.46-7.7c2.83-0.58,5.78-1.25,8.75-2.03c9.6-2.51,19.65-5.98,28.13-9.84
			c10.72-4.86,18.98-10.35,26.02-16.13c7.04-5.78,12.83-11.86,18.58-17.87c0.16-0.18,0.29-0.38,0.35-0.62
			c2.78-10.85,5.65-21.89,5.65-33.28C1238.69,1151.58,1238.56,1149.23,1238.29,1146.85z M1166.11,1150.4
			c-3.26,9.18-6.96,17.44-11.12,25.31c-4.18,7.87-8.82,15.33-13.98,22.94c-1.14,1.68-2.32,3.39-3.47,5.06
			c-0.96,1.38-1.89,2.74-2.8,4.08c-0.21,0.29-0.4,0.58-0.59,0.85c-1.06,1.57-2.06,3.07-2.96,4.5c0.32-2.1,0.62-4.19,0.8-6.3
			c0.1-1.07,0.14-2.14,0.14-3.23c0-8.38-3.2-17.44-17.98-29.26c-10.45-8.35-26.59-17.98-43.97-26.64
			c-5.39-2.69-10.9-5.28-16.38-7.71c-12.22-5.38-24.35-9.97-34.94-12.98c-7.81-2.22-14.78-3.58-21.1-4.4
			c-6.32-0.82-12-1.07-17.23-1.07c-4.67,0-8.99,0.21-13.14,0.4c-3.74,0.18-7.34,0.34-10.88,0.34c-0.91,0-1.81,0-2.72-0.03
			c-14.99-0.42-31.92-4.94-31.92-12.51v-0.14c0.02-0.5,0.1-0.99,0.26-1.47c1.22-3.7,7.1-7.46,15.3-10.98
			c8.19-3.5,18.67-6.77,29.06-9.44c8.7-2.24,17.63-4.13,26.91-5.46c9.28-1.34,18.94-2.11,29.12-2.11c4.59,0,9.28,0.14,14.1,0.48
			c13.41,0.94,27.73,3.25,41.76,5.52c13.33,2.14,26.4,4.26,38.32,5.14c6.96,0.53,13.54,0.62,19.6,0.72
			c5.09,0.08,9.84,0.16,14.1,0.48c4.16,0.3,8,0.85,11.26,1.94c3.3,1.09,6.02,2.72,8.02,5.18c2.96,3.65,4.14,9.01,4.14,15.18
			c0,7.6-1.79,16.48-4.27,25.06C1168.48,1143.44,1167.31,1147.01,1166.11,1150.4z M1230.3,1186.51c0.03-0.11,0.06-0.24,0.1-0.35
			c0.08-0.1,0.18-0.18,0.26-0.27L1230.3,1186.51z"/>
		<path class="st11" d="M1169.52,1139.82c-1.04,3.62-2.21,7.18-3.41,10.58c-3.26,9.18-6.96,17.44-11.12,25.31
			c-4.18,7.87-8.82,15.33-13.98,22.94c-1.14,1.68-2.32,3.39-3.47,5.06c-0.96,1.38-1.89,2.74-2.8,4.08c-0.21,0.29-0.4,0.58-0.59,0.85
			c-1.06,1.57-2.06,3.07-2.96,4.5c0.32-2.1,0.62-4.19,0.8-6.3c0.1-1.07,0.14-2.14,0.14-3.23c0-8.38-3.2-17.44-17.98-29.26
			c-10.45-8.35-26.59-17.98-43.97-26.64c-5.39-2.69-10.9-5.28-16.38-7.71c21.12-0.98,41.76-1.39,60.93-1.39
			c10.56,0,20.67,0.11,30.19,0.35C1153.6,1139.15,1161.79,1139.46,1169.52,1139.82z"/>
		<path class="st20" d="M1188.54,2084.35c-26.06,1.04-51.33,1.49-76.11,1.49c-26.5,0-52.46-0.51-78.34-1.34
			c-25.54-0.83-50.98-1.98-74.91-3.5c-23.94-1.52-46.38-3.38-65.92-5.65c-19.47-2.27-36.22-4.93-50.1-10.29
			c-13.86-5.38-24.82-13.46-32.67-26.54c-14.03-23.41-18.03-62.62-18.03-95.12c0-3.52,0.05-6.94,0.13-10.27
			c0.16-6.11,0.46-11.87,0.85-17.49c0.82-11.55,2.05-22.5,3.39-34.56c0.85-7.47,1.73-15.39,2.59-24.16
			c0.88-8.77,1.73-18.4,2.5-29.31c1.68-24.03,2.93-54.27,3.82-84.99s1.41-61.95,1.62-87.92c0.08-8.85,0.11-17.09,0.11-24.93
			c0-38.18-0.9-66.82-2.8-109.79c-0.54-12.13-1.17-25.42-1.82-39.46c-1.07-22.98-2.26-48.03-3.33-73.58
			c-1.07-25.55-2.05-51.58-2.72-76.53l171.26,66.21c0,0-13.82,385.34-8.64,509.76c5.18,124.42,126.48,157.68,152.24,164.37
			C1122.1,2073.44,1154.13,2078.86,1188.54,2084.35z"/>
		<path class="st7" d="M1173.79,1114.77c0,7.6-1.79,16.48-4.27,25.06c-7.73-0.37-15.92-0.67-24.61-0.88
			c-9.52-0.24-19.63-0.35-30.19-0.35c-19.17,0-39.81,0.42-60.93,1.39c-12.22-5.38-24.35-9.97-34.94-12.98
			c-7.81-2.22-14.78-3.58-21.1-4.4c-6.32-0.82-12-1.07-17.23-1.07c-4.67,0-8.99,0.21-13.14,0.4c-3.74,0.18-7.34,0.34-10.88,0.34
			c-0.91,0-1.81,0-2.72-0.03c-14.99-0.42-31.92-4.94-31.92-12.51v-0.14c0.02-0.5,0.1-0.99,0.26-1.47c1.22-3.7,7.1-7.46,15.3-10.98
			c8.19-3.5,18.67-6.77,29.06-9.44c8.7-2.24,17.63-4.13,26.91-5.46c9.28-1.34,18.94-2.11,29.12-2.11c4.59,0,9.28,0.14,14.1,0.48
			c13.41,0.94,27.73,3.25,41.76,5.52c13.33,2.14,26.4,4.26,38.32,5.14c6.96,0.53,13.54,0.62,19.6,0.72
			c5.09,0.08,9.84,0.16,14.1,0.48c4.16,0.3,8,0.85,11.26,1.94c3.3,1.09,6.02,2.72,8.02,5.18
			C1172.61,1103.23,1173.79,1108.59,1173.79,1114.77z"/>
		<path class="st21" d="M1230.3,1186.51c0.03-0.11,0.06-0.24,0.1-0.35c0.08-0.1,0.18-0.18,0.26-0.27L1230.3,1186.51z"/>
		<g>
			<path class="st6" d="M1148.19,1105.76l-8.06-81.97c-0.05-0.43-0.27-0.8-0.62-1.04c-26.38-17.41-52.9-34.88-76.19-48.78
				c-23.28-13.9-43.38-24.24-56.91-27.36c-3.04-0.69-5.79-1.04-8.27-1.04c-7.95,0-12.78,3.49-15.65,9.31
				c-2.86,5.86-3.74,14.05-3.74,23.49c0,6.03,0.35,12.72,0.83,19.87c0.72,10.53,1.7,22.14,2.78,33.95
				c1.09,11.81,2.29,23.81,3.41,35.14c0.19,1.92,0.38,3.81,0.56,5.68c0.48,4.78,0.94,9.41,1.36,13.81
				c0.61,6.11,1.12,11.81,1.55,16.85c1.28,15.01,1.66,24.43,1.66,31.41c0,5.5-0.24,9.47-0.48,13.46c-0.03,0.58,0.29,1.1,0.8,1.34
				l31.09,14.93c0.1,0.06,0.21,0.1,0.32,0.11l0.16,0.03c12.74,2.54,25.52,5.1,37.54,7.06c12,1.94,23.25,3.28,32.9,3.39
				c0.46,0.02,0.93,0.02,1.39,0.02c9.33,0,17.15-1.17,23.71-3.14c6.56-1.97,11.86-4.75,16.11-8.02c4.35-3.33,7.58-7.14,10.24-11.12
				c2.66-4,4.72-8.18,6.75-12.29c0.13-0.24,0.18-0.51,0.14-0.77L1148.19,1105.76z M1137.39,1024.74l-0.06-0.67l0.62,1.04
				C1137.76,1024.98,1137.58,1024.86,1137.39,1024.74z"/>
		</g>
		<path class="st8" d="M1080.32,1242.42c14.68-18.8,33.34-34.33,47.63-53.39c-2.72-4.46-7.04-9.29-13.81-14.7
			c-10.45-8.35-26.59-17.98-43.97-26.64s-35.98-16.32-51.33-20.69c-7.81-2.22-14.78-3.58-21.1-4.4c-6.32-0.82-12-1.07-17.23-1.07
			c-4.67,0-8.99,0.21-13.14,0.4c-3.74,0.18-7.34,0.34-10.88,0.34c-0.91,0-1.81,0-2.72-0.03c-2.29-0.06-4.62-0.22-6.93-0.47
			c-1.47,4.24-3.64,8.34-5.15,12.55c-2.98,8.29-5.04,16.97-7.44,25.44c-2.45,8.64-4.86,17.28-7.31,25.92
			c-1.57,5.52-3.22,11.01-4.88,16.5c2.22,0.08,4.43,0.16,6.66,0.24c7.78,0.27,15.62,0.54,23.46,0.96c8.94,0.5,17.84,1.17,26.54,2.29
			c8.69,1.1,17.18,2.64,25.31,4.82c8.5,2.27,16.61,5.26,24.48,8.58c7.87,3.31,15.52,6.98,23.07,10.59
			c5.92,2.83,11.78,5.63,17.63,8.21C1072.91,1239.48,1076.61,1241.01,1080.32,1242.42z"/>
		<path class="st9" d="M1148.19,1105.76c-16.5,5.5-34.72,8.54-53.86,8.54c-44.16,0-83.38-16.22-108.02-41.3
			c-0.18-1.87-0.37-3.76-0.56-5.68c-1.12-11.33-2.32-23.33-3.41-35.14c-1.09-11.81-2.06-23.42-2.78-33.95
			c-0.48-7.15-0.83-13.84-0.83-19.87c0-9.44,0.88-17.63,3.74-23.49c2.86-5.82,7.7-9.31,15.65-9.31c2.48,0,5.23,0.35,8.27,1.04
			c13.54,3.12,33.63,13.46,56.91,27.36c23.3,13.9,49.81,31.38,76.19,48.78c0.35,0.24,0.58,0.61,0.62,1.04L1148.19,1105.76z"/>
		<g>
			<path class="st6" d="M1229.36,932.86c0,1.49-0.02,2.99-0.05,4.48c-0.26,13.82-2.02,27.73-5.09,41.33
				c-3.07,13.62-7.46,26.93-12.88,39.63c-5.42,12.74-13.74,25.63-24.14,36.08c-10.38,10.46-22.85,18.48-36.59,21.42
				c-6.34,1.36-12.78,1.94-19.26,1.94c-1.38,0-2.77-0.03-4.16-0.08c-7.25-0.26-14.54-1.18-21.74-2.45
				c-7.2-1.28-14.34-2.9-21.26-4.56c-13.1-3.14-26.16-6.99-38.85-11.78c-12.69-4.78-25.02-10.5-36.66-17.38
				c-14.06-8.3-24.77-20.54-32.94-34.98c-4.51-7.94-8.24-16.54-11.34-25.54c-0.94-2.72-1.82-5.47-2.62-8.26
				c-6.88-23.09-9.98-48.02-11.5-70.16l-0.05-0.59l-0.03-0.59c-0.86-12.46-1.78-25.87-1.78-39.33c0-29.38,4.37-58.94,23.25-79.39
				c7.87-8.51,17.62-14.99,28.1-20.22c10.5-5.23,21.73-9.2,32.58-12.66c21.14-6.74,43.6-12.02,65.95-12.02
				c1.68,0,3.38,0.03,5.06,0.1c1.7,0.06,3.39,0.16,5.07,0.29c7.38,0.56,14.72,1.58,21.98,2.96c7.28,1.39,14.48,3.14,21.57,5.14
				c7.1,1.98,14.13,4.27,21.06,6.83c0.94,0.35,2.32,0.88,3.49,1.33c1.15,0.45,2.08,0.82,2.08,0.82h0.02c0,0,3.17,1.31,4.75,2.05
				c3.07,1.42,6.19,3.25,8.94,5.5c2.77,2.27,5.17,4.96,6.8,8.1c4.4,8.51,7.57,17.57,10.05,26.85c2.48,9.26,4.27,18.74,5.98,28.03
				c0.86,4.67,1.71,9.25,2.61,13.95c0.86,4.66,1.74,9.34,2.61,14.02C1225.14,879.87,1229.36,906.29,1229.36,932.86z"/>
		</g>
		<g>
			<path class="st5" d="M1256.18,711.15c0,13.98-2.26,28.3-7.15,41.68c-4.29,11.76-10.64,22.82-18.88,32.05
				c-8.26,9.23-18.4,16.62-30.29,21.04c-4.1,1.52-8.38,2.69-12.82,3.57c-8.98,1.78-18.59,2.38-28.46,2.38
				c-8.29,0-16.75-0.43-25.18-0.94c-2.7-0.18-5.39-0.35-8.08-0.53c-2.67-0.18-5.34-0.35-8-0.51c-12.3-0.77-24.32-1.3-35.86-1.3
				c-15.31,0-29.79,0.93-43.02,3.49c-0.24,0.05-0.5,0.1-0.74,0.14c-11.57,2.29-21.92,5.78-29.78,10.61
				c-7.84,4.82-13.17,10.98-14.7,18.59c-0.35,1.71-0.5,3.5-0.5,5.36c0,5.49,1.36,11.62,3.41,18.03c1.86,5.79,4.22,11.7,6.54,17.47
				c2.14,5.39,4.26,10.66,5.81,15.5c2.85,8.91,3.81,16.38,3.81,23.09c0,6.62-0.93,12.51-1.86,18.35l-0.02,0.08
				c-0.08,0.5-0.42,0.9-0.86,1.09c-0.46,0.18-0.99,0.11-1.38-0.19c-12.14-9.23-23.7-17.92-35.17-17.92c-1.12,0-2.22,0.08-3.34,0.26
				c-0.3,0.05-0.62,0.1-0.94,0.16c-3.02,0.59-6.05,1.81-9.02,3.3s-5.89,3.25-8.67,4.93c-2.08,1.26-4.13,2.5-6.06,3.5
				c-1.95,1.02-3.78,1.79-5.39,2.11c-0.54,0.11-1.07,0.18-1.62,0.18c-0.66,0-1.3-0.1-1.92-0.32c-1.25-0.43-2.21-1.31-2.98-2.45
				c-0.77-1.15-1.34-2.56-1.81-4.05c-1.01-3.2-1.71-7.46-2.53-12.24c-1.12-6.72-2.46-14.66-5.04-22.83
				c-1.44-4.59-3.26-9.25-5.34-14.06c-2.06-4.8-4.37-9.74-6.77-14.88c-2.77-5.95-5.66-12.13-8.43-18.62
				c-2.75-6.5-5.38-13.28-7.6-20.43c-4.21-13.47-7.07-28.29-7.07-42.93c0-14.3,2.74-28.43,9.62-40.98
				c6.94-12.66,18.1-23.62,30.85-32.3c12.74-8.69,27.1-15.1,40.5-18.69c2.56-0.69,5.09-1.28,7.58-1.76
				c5.81-1.15,11.46-1.82,17.01-2.21c5.57-0.38,11.04-0.48,16.5-0.48c2.86,0,5.73,0.02,8.59,0.05c3.01,0.03,6.03,0.06,9.06,0.06
				c5.39,0,10.85-0.1,16.4-0.48c10.94-0.77,22.37-2.62,33.76-4.88c0.83-0.16,1.66-0.32,2.5-0.5c7.2-1.46,14.35-3.06,21.33-4.62
				c6.61-1.47,13.06-2.91,19.2-4.16c0.78-0.16,1.57-0.32,2.34-0.46c2.85-0.56,5.6-1.09,8.3-1.6c2.56-0.48,5.04-0.96,7.47-1.44
				c7.68-1.52,14.62-3.1,20.8-5.34c6.18-2.24,11.55-5.14,16.14-9.28c6.32-5.7,11.15-13.81,15.28-23.2
				c4.13-9.39,7.54-20.06,10.98-30.88l0.03-0.14c0.16-0.48,0.58-0.85,1.07-0.94c0.5-0.11,1.01,0.06,1.34,0.46l18.32,21.47
				c0.03,0.05,0.08,0.11,0.11,0.16c5.78,9.06,11.6,18.14,16.69,27.79c5.09,9.63,9.42,19.81,12.24,30.99
				C1254.88,690.18,1256.18,700.58,1256.18,711.15z"/>
		</g>
		<g>
			<path class="st13" d="M1134.51,933.67L1134.51,933.67l0.07,0.01h0c3.38,0.64,6.69,1.26,9.88,1.56l0,0
				c5.14,0.48,9.78,0.09,13.72-2.27l0,0c6.78-4.05,11.24-13.45,9-18.28l0,0c-1.4-3.01-5.5-4.8-10.51-6.87l0,0
				c-2.87-1.18-5.94-2.45-8.35-4.14l0,0c-6.53-4.57-7.94-12.02-9.27-18.74c-0.15-0.76,0.34-1.5,1.11-1.65
				c0.76-0.15,1.5,0.34,1.65,1.11l0,0c1.37,6.95,2.67,13.17,8.12,16.99l0,0c2.11,1.48,4.87,2.62,7.81,3.84l0,0
				c4.59,1.9,10.02,4.05,11.99,8.28l0,0c3.16,6.79-2.83,17.53-10.1,21.88l0,0c-4.69,2.81-10.05,3.15-15.43,2.65l0,0
				c-3.35-0.31-6.79-0.96-10.15-1.59l0,0l-0.07-0.01c-0.76-0.14-1.27-0.88-1.12-1.64C1133.01,934.03,1133.74,933.52,1134.51,933.67z
				"/>
		</g>
		<g>
			<path class="st22" d="M1093.11,967.47L1093.11,967.47l0.04,0.04l0,0c5.91,6.52,11.64,12.82,20.9,17.15l0,0
				c6.12,2.86,13.82,4.88,21.1,5.56l0,0c3.8,0.35,7.44,0.34,10.66-0.1l0,0c9.33-1.26,15.35-6.08,21.67-11.17
				c0.61-0.49,1.49-0.39,1.98,0.21c0.49,0.61,0.39,1.49-0.21,1.98l0,0c-6.29,5.06-12.86,10.38-23.06,11.76l0,0
				c-3.48,0.47-7.34,0.48-11.3,0.11l0,0c-7.57-0.7-15.59-2.8-22.03-5.81l0,0c-9.83-4.6-15.9-11.31-21.79-17.81l0,0l-0.03-0.04
				c-0.52-0.58-0.48-1.46,0.1-1.99C1091.7,966.85,1092.59,966.89,1093.11,967.47z"/>
		</g>
		<ellipse class="st16" cx="1856.75" cy="1488.71" rx="63.13" ry="28.51"/>
		<g>
			<path class="st14" d="M744.34,3520.42c0.07,19.39,2.3,30.55,2.3,30.55l453.48,5.2v-43.57c0-19.1-11.07-36.46-28.38-44.51
				l-224.36-104.33c0,0-93.61,24.96-164.33,12.48c0,0-31.21,65.53-36.41,107.13C744.85,3497.72,744.3,3510.21,744.34,3520.42z"/>
			<path class="st11" d="M744.34,3520.42c0.07,19.39,2.3,30.55,2.3,30.55l453.48,5.2v-35.75H744.34z"/>
			<g>
				<path class="st11" d="M1069.92,3470.84c1.25,0,2.49-0.57,3.29-1.66l25.29-34.24c1.34-1.82,0.96-4.38-0.86-5.72
					c-1.82-1.34-4.38-0.96-5.72,0.86l-25.29,34.24c-1.34,1.82-0.96,4.38,0.86,5.72C1068.22,3470.58,1069.07,3470.84,1069.92,3470.84
					z"/>
			</g>
			<g>
				<path class="st11" d="M1037.2,3453.72c1.25,0,2.49-0.57,3.29-1.66l25.29-34.24c1.34-1.82,0.96-4.38-0.86-5.72
					c-1.82-1.34-4.38-0.96-5.72,0.86l-25.29,34.24c-1.34,1.82-0.96,4.38,0.86,5.72C1035.5,3453.46,1036.35,3453.72,1037.2,3453.72z"
					/>
			</g>
			<g>
				<path class="st11" d="M1003.31,3438.04c1.25,0,2.49-0.57,3.29-1.66l25.29-34.24c1.34-1.82,0.96-4.38-0.86-5.72
					c-1.82-1.34-4.38-0.96-5.72,0.86l-25.29,34.24c-1.34,1.82-0.96,4.38,0.86,5.72C1001.62,3437.78,1002.47,3438.04,1003.31,3438.04
					z"/>
			</g>
		</g>
		<polygon class="st6" points="1443.84,3416.83 1286.59,3416.83 1276.14,3337.87 1264.91,3253.02 1264.4,3249.15 1288.88,3250.02 
			1425.47,3254.85 1434,3330 		"/>
		<g>
			<path class="st14" d="M1239.77,3520.42c0.07,19.39,2.3,30.55,2.3,30.55l453.48,5.2v-43.57c0-19.1-11.07-36.46-28.38-44.51
				l-224.36-104.33c0,0-93.61,24.96-164.33,12.48c0,0-31.21,65.53-36.41,107.13C1240.28,3497.72,1239.72,3510.21,1239.77,3520.42z"
				/>
			<path class="st11" d="M1239.77,3520.42c0.07,19.39,2.3,30.55,2.3,30.55l453.48,5.2v-35.75H1239.77z"/>
			<g>
				<path class="st11" d="M1565.34,3470.84c1.25,0,2.49-0.57,3.29-1.66l25.29-34.24c1.34-1.82,0.96-4.38-0.86-5.72
					c-1.82-1.34-4.38-0.96-5.72,0.86l-25.29,34.24c-1.34,1.82-0.96,4.38,0.86,5.72C1563.65,3470.58,1564.5,3470.84,1565.34,3470.84z
					"/>
			</g>
			<g>
				<path class="st11" d="M1532.62,3453.72c1.25,0,2.49-0.57,3.29-1.66l25.29-34.24c1.34-1.82,0.96-4.38-0.86-5.72
					c-1.82-1.34-4.38-0.96-5.72,0.86l-25.29,34.24c-1.34,1.82-0.96,4.38,0.86,5.72C1530.92,3453.46,1531.78,3453.72,1532.62,3453.72
					z"/>
			</g>
			<g>
				<path class="st11" d="M1498.74,3438.04c1.25,0,2.49-0.57,3.29-1.66l25.29-34.24c1.34-1.82,0.96-4.38-0.86-5.72
					c-1.82-1.34-4.38-0.96-5.72,0.86l-25.29,34.24c-1.34,1.82-0.96,4.38,0.86,5.72C1497.04,3437.78,1497.89,3438.04,1498.74,3438.04
					z"/>
			</g>
		</g>
		<polygon class="st9" points="1434,3330 1276.14,3337.87 1264.91,3253.02 1288.88,3250.02 1425.47,3254.85 		"/>
		<path class="st8" d="M987.65,3255.17c-6.66,23.17-12.96,44.72-19.24,66.26l-0.41,1.36c-0.18,0.62-0.84,1.07-1.57,1.04l-185.9-6.21
			c-0.82-0.03-1.46-0.62-1.5-1.36c-0.93-19.82-1.86-39.66-2.62-61.09H987.65z"/>
		<path class="st8" d="M1458.94,3232.9c-0.99,20.77-2.01,41.73-3.02,62.69l-0.15,3.17c-0.04,0.75-0.74,1.34-1.6,1.36l-206.07,1.55
			c-0.76,0-1.4-0.43-1.58-1.06c-6.36-21.65-12.71-43.33-19.25-67.71H1458.94z"/>
		<path class="st23" d="M2891.57,3418.83l-0.22-2.1C2891.38,3416.98,2891.49,3417.71,2891.57,3418.83z"/>
		<g>
			<path class="st12" d="M2894.14,3471.55c0,11.07-0.75,22.13-1.49,33.12c-0.05,0.7-0.62,1.26-1.33,1.3l-287.39,14.45
				c-0.43,0.02-0.85-0.16-1.14-0.48c-0.27-0.32-0.4-0.75-0.32-1.17c0.98-5.58,1.97-11.22,3.94-17.28c0.85-2.59,1.89-5.28,3.18-8.08
				c1.73-3.71,3.9-7.62,6.74-11.78c4.91-7.25,11.79-15.28,19.63-23.22c7.84-7.94,16.64-15.76,25.44-22.58
				c8.43-6.54,16.88-12.16,24.86-17.47c7.25-4.83,14.13-9.41,20.35-14.22c1.23-0.96,2.45-1.94,3.63-2.91
				c6.83-5.66,12.75-11.81,18.22-18.18c5.47-6.38,10.5-13.01,15.54-19.66c0.26-0.34,0.62-0.53,1.04-0.56l107.06-5.63
				c0.51-0.03,1.01,0.22,1.28,0.67l0.06,0.11c7.31,12.05,14.66,24.14,21.01,36.3c6.34,12.16,11.66,24.38,14.94,36.64
				c0.27,1.02,0.53,2.06,0.78,3.09C2893.18,3446.51,2894.14,3459.04,2894.14,3471.55z"/>
		</g>
		<path class="st0" d="M2894.14,3471.55c0,11.07-0.75,22.13-1.49,33.12c-0.05,0.7-0.62,1.26-1.33,1.3l-287.39,14.45
			c-0.43,0.02-0.85-0.16-1.14-0.48c-0.27-0.32-0.4-0.75-0.32-1.17c0.98-5.58,1.97-11.22,3.94-17.28c0.85-2.59,1.89-5.28,3.18-8.08
			c42-2.99,165.44-11.95,221.82-18.59c41.84-4.93,54.91-25.5,58.77-40.8C2893.18,3446.51,2894.14,3459.04,2894.14,3471.55z"/>
		<g>
			<path class="st0" d="M2707.2,3450.91c-1.55,0-3.11-0.5-4.43-1.53l-27.15-21.19c-3.13-2.45-3.69-6.97-1.24-10.11
				c2.45-3.13,6.97-3.69,10.11-1.24l27.15,21.19c3.13,2.45,3.69,6.97,1.24,10.11C2711.46,3449.96,2709.34,3450.91,2707.2,3450.91z"
				/>
		</g>
		<g>
			<path class="st0" d="M2734.34,3431.88c-1.55,0-3.11-0.5-4.43-1.52l-27.15-21.19c-3.14-2.45-3.69-6.97-1.25-10.1
				c2.45-3.13,6.97-3.69,10.1-1.25l27.15,21.19c3.14,2.45,3.69,6.97,1.25,10.1C2738.6,3430.92,2736.48,3431.88,2734.34,3431.88z"/>
		</g>
		<g>
			<path class="st12" d="M3250.11,3471.55c0,11.07-0.75,22.13-1.49,33.12c-0.05,0.7-0.62,1.26-1.33,1.3l-287.39,14.45
				c-0.43,0.02-0.85-0.16-1.14-0.48c-0.27-0.32-0.4-0.75-0.32-1.17c0.98-5.58,1.97-11.22,3.94-17.28c0.85-2.59,1.89-5.28,3.18-8.08
				c1.73-3.71,3.9-7.62,6.74-11.78c4.91-7.25,11.79-15.28,19.63-23.22s16.64-15.76,25.44-22.58c8.43-6.54,16.88-12.16,24.86-17.47
				c7.25-4.83,14.13-9.41,20.35-14.22c1.23-0.96,2.45-1.94,3.63-2.91c6.83-5.66,12.75-11.81,18.22-18.18
				c5.47-6.38,10.5-13.01,15.54-19.66c0.26-0.34,0.62-0.53,1.04-0.56l107.06-5.63c0.51-0.03,1.01,0.22,1.28,0.67l0.06,0.11
				c7.31,12.05,14.66,24.14,21.01,36.3c6.34,12.16,11.66,24.38,14.94,36.64c0.27,1.02,0.53,2.06,0.78,3.09
				C3249.15,3446.51,3250.11,3459.04,3250.11,3471.55z"/>
		</g>
		<path class="st0" d="M3250.11,3471.55c0,11.07-0.75,22.13-1.49,33.12c-0.05,0.7-0.62,1.26-1.33,1.3l-287.39,14.45
			c-0.43,0.02-0.85-0.16-1.14-0.48c-0.27-0.32-0.4-0.75-0.32-1.17c0.98-5.58,1.97-11.22,3.94-17.28c0.85-2.59,1.89-5.28,3.18-8.08
			c42-2.99,165.44-11.95,221.82-18.59c41.84-4.93,54.91-25.5,58.77-40.8C3249.15,3446.51,3250.11,3459.04,3250.11,3471.55z"/>
		<g>
			<path class="st0" d="M3063.16,3450.91c-1.55,0-3.11-0.5-4.43-1.53l-27.15-21.19c-3.13-2.45-3.69-6.97-1.24-10.11
				c2.45-3.13,6.97-3.69,10.11-1.24l27.15,21.19c3.13,2.45,3.69,6.97,1.24,10.11C3067.42,3449.96,3065.3,3450.91,3063.16,3450.91z"
				/>
		</g>
		<g>
			<path class="st0" d="M3090.31,3431.88c-1.55,0-3.11-0.5-4.43-1.52l-27.15-21.19c-3.14-2.45-3.69-6.97-1.25-10.1
				c2.45-3.13,6.97-3.69,10.1-1.25l27.15,21.19c3.14,2.45,3.69,6.97,1.25,10.1C3094.57,3430.92,3092.45,3431.88,3090.31,3431.88z"/>
		</g>
		<path class="st9" d="M975.73,1006.53c-4.51-7.94-8.24-16.54-11.34-25.54c-0.94-2.72-1.82-5.47-2.62-8.26
			c10.96-2.88,21.57-6.45,22.82-9.66C986.64,957.78,978.35,986.9,975.73,1006.53z"/>
		<g>
			<path class="st8" d="M1210.1,1669.01c-0.19-0.05-0.38-0.11-0.58-0.16l0.86,0.69L1210.1,1669.01z"/>
			<path class="st8" d="M1613.04,1804.5c0,16.74-5.49,34.7-10.86,52.42c-0.16,0.5-0.58,0.88-1.09,0.98
				c-12.18,2.34-24.35,4.67-36.59,6.94c-6.85,1.26-13.7,2.53-20.58,3.74c-19.18,3.42-38.54,6.61-58.27,9.33
				c-19.73,2.75-39.82,5.02-60.06,6.77c-20.24,1.79-40.59,3.06-60.88,3.76c-11.06,0.4-22.08,0.62-33.12,0.62
				c-29.42,0-58.85-1.62-88.62-6.11c-20.46-3.1-41.12-7.55-60.88-13.15s-38.62-12.35-55.52-20.05
				c-16.93-7.71-31.86-16.37-46.29-26.4c-14.45-10.03-28.37-21.46-43.26-34.72c-14.9-13.23-30.78-28.3-46.5-44.24
				c-15.71-15.95-31.25-32.75-45.47-49.44c-12.14-14.24-23.31-28.38-34.24-42.9c-10.93-14.48-21.6-29.31-32.74-44.88l-5.73-8
				l-5.92-8.3l-3.41-4.77c-13.09-18.3-26.96-37.66-39.6-56.74c-12.62-19.09-24.05-37.89-32.22-55.04
				c-6.38-13.41-10.82-25.81-14.13-37.71c-3.3-11.9-5.5-23.31-7.44-34.72c-0.64-3.84-1.28-7.7-1.9-11.55
				c-0.62-3.9-1.26-7.86-1.94-11.81c-0.62-3.66-1.28-7.38-1.94-11.1c-3.38-19.09-6.91-39.04-6.91-58.5c0-9.09,0.77-18.06,2.69-26.77
				c3.42-15.54,10.46-30.27,19.3-42.48c8.85-12.24,19.49-21.97,30.11-27.49c0.27-0.16,0.54-0.3,0.82-0.43
				c8.48-4.26,16.91-5.82,25.26-5.82c12.42,0,24.69,3.49,36.72,6.9h0.05c0.16,0.05,0.3,0.11,0.43,0.21
				c7.95,5.65,15.9,11.33,24.03,17.65c8.11,6.3,16.4,13.28,24.98,21.5c8.58,8.24,17.44,17.74,26.9,28.83
				c9.46,11.07,19.5,23.73,30.46,38.27c4.14,5.49,8.4,11.25,12.77,17.22c9.14,12.48,18.75,25.89,28.61,39.65
				c10.42,14.51,21.1,29.46,31.86,44.13c8.99,12.27,18,24.38,26.75,36.13c8.19,10.99,16.14,21.66,23.62,31.87
				c7.49,10.21,14.46,19.95,20.74,29.06c9.63,14,17.52,26.53,24.54,38.32c7.04,11.78,13.2,22.83,19.36,33.86l0.02,0.02l43.17,79.47
				c-0.19-0.05-0.38-0.11-0.58-0.16l0.86,0.69l-0.29-0.53c16.19,4.59,32.53,9.18,61.87,15.74c9.25,2.08,19.81,4.34,31.18,6.72
				c11.39,2.4,23.62,4.94,36.24,7.52c7.52,1.54,15.44,3.17,23.15,4.74c7.84,1.6,15.81,3.23,23.65,4.83
				c10.32,2.11,20.5,4.22,30.56,6.3c15.18,3.14,30,6.18,44.24,9.07c14.24,2.9,27.94,5.65,40.86,8.16
				c17.22,3.36,33.06,6.3,48.26,9.06c3.5,0.64,6.98,1.25,10.42,1.87c11.47,2.03,22.64,3.98,33.79,5.95
				c0.43,0.08,0.82,0.35,1.01,0.74c4.06,7.97,8.16,16.03,11.39,24.37c3.23,8.3,5.6,16.86,6.18,25.89
				C1612.99,1801.46,1613.04,1802.98,1613.04,1804.5z"/>
		</g>
		<path class="st7" d="M1210.1,1669c-6.67,3.59-12.67,6.75-18.3,10.17c-5.61,3.39-10.73,6.97-15.33,10.97
			c-2.29,2.02-4.45,4.14-6.55,6.38c-2.07,2.27-3.97,4.7-5.9,7.25c-3.76,5.18-7.04,11.03-10.94,17.6c-2.11-7.34-1.6-15.19,0.8-22.63
			c1.27-3.7,3.04-7.26,5.25-10.57c2.24-3.28,4.92-6.27,7.9-8.88c6-5.21,13.19-8.76,20.6-10.58c3.72-0.89,7.5-1.38,11.27-1.38
			C1202.66,1667.34,1206.46,1667.72,1210.1,1669z"/>
		<path class="st7" d="M1214.02,1673.09c-1.38,5.74-2.94,10.85-4.38,15.92c-1.46,5.04-2.79,9.93-3.96,14.8
			c-1.22,4.88-1.96,9.73-2.64,14.76c-0.11,1.25-0.26,2.53-0.44,3.82l-0.23,3.92l-0.19,2.04c-0.01,0.67,0.01,1.35-0.01,2.04
			c-0.01,1.38-0.1,2.82-0.25,4.34c-0.98-1.08-1.9-2.24-2.74-3.45c-0.44-0.6-0.84-1.23-1.25-1.86l-0.95-1.98
			c-0.59-1.35-1.22-2.72-1.69-4.13c-0.39-1.42-0.74-2.87-1.05-4.34c-1.01-5.85-0.91-11.99,0.53-17.7c1.38-5.74,3.74-11.17,6.92-16
			c1.61-2.41,3.4-4.69,5.44-6.75C1209.17,1676.45,1211.4,1674.54,1214.02,1673.09z"/>
		<path class="st7" d="M1613.04,1804.5c0,16.74-5.49,34.7-10.86,52.42c-0.16,0.5-0.58,0.88-1.09,0.98
			c-12.18,2.34-24.35,4.67-36.59,6.94c14.38-31.28,3.6-90.06-3.97-121.81c11.47,2.03,22.64,3.98,33.79,5.95
			c0.43,0.08,0.82,0.35,1.01,0.74c4.06,7.97,8.16,16.03,11.39,24.37c3.23,8.3,5.6,16.86,6.18,25.89
			C1612.99,1801.46,1613.04,1802.98,1613.04,1804.5z"/>
		<g>
			<path class="st6" d="M1003.22,947.6c0,4.18-0.51,8.38-1.92,12.32c-0.91,2.53-2.21,4.9-3.73,7.09c-1.54,2.19-3.3,4.22-5.09,6.08
				c-3.58,3.71-7.9,7.04-12.61,9.71c-4.72,2.67-9.82,4.66-15.04,5.7c-2.59,0.51-5.2,0.78-7.79,0.78c-0.66,0-1.31-0.02-1.95-0.05
				c-6.38-0.37-12.83-2.62-18.54-6.13c-5.71-3.5-10.69-8.26-14.11-13.58c-5.28-8.21-9.36-18.75-9.36-28.91
				c0-3.39,0.45-6.75,1.47-9.95c1.94-6.05,5.73-11.54,10.48-16.08c4.77-4.56,10.48-8.18,16.26-10.5c2.05-0.82,4.16-1.44,6.34-1.86
				c2.7-0.54,5.47-0.78,8.27-0.78c9.23,0,18.72,2.7,26.53,6.85c4.21,2.24,8.35,5.06,11.62,8.7c1.28,1.41,3.26,4.48,3.26,4.48
				c0.03,0.03,0.05,0.08,0.08,0.14c0,0,1.71,3.49,2.38,5.34c1.54,4.29,2.48,8.77,2.99,13.25
				C1003.02,942.61,1003.22,945.1,1003.22,947.6z"/>
		</g>
		<g>
			<path class="st9" d="M954.63,969.06c-0.45,0-0.91-0.05-1.36-0.17c-3-0.75-4.82-3.79-4.07-6.79c2.66-10.64,15.34-16.85,23.6-19.83
				c-3.19-4.56-6.99-7.44-11.34-8.58c-10.61-2.79-21.9,5.07-22.02,5.15c-2.52,1.78-6.01,1.19-7.8-1.32c-1.79-2.51-1.21-6,1.29-7.79
				c0.63-0.45,15.56-10.97,31.28-6.89c9.34,2.42,16.73,9.27,21.97,20.35c0.72,1.53,0.72,3.29-0.01,4.82
				c-0.73,1.52-2.11,2.63-3.75,3.02c-6.56,1.58-20.68,7.04-22.37,13.8C959.42,967.36,957.14,969.06,954.63,969.06z"/>
		</g>
		<circle class="st5" cx="1083.55" cy="890.21" r="11.23"/>
		
			<ellipse transform="matrix(0.1602 -0.9871 0.9871 0.1602 134.4396 1902.0648)" class="st5" cx="1185.02" cy="872.03" rx="11.23" ry="11.23"/>
		<path class="st5" d="M1044.86,872.03c0,0,2.3-23.39,29.57-28.38l6.53,13.06c0,0-26.69,5.38-32.45,19.78L1044.86,872.03z"/>
		<path class="st5" d="M1204.96,840.77c0,0-13.84-18.99-39.87-9.46l0.99,14.56c0,0,25.73-8.9,37.99,0.59L1204.96,840.77z"/>
		<path class="st24" d="M1213.06,629.38c5.34,6.43,9.75,13.56,13.7,20.94c3.92,7.4,7.26,15.16,9.91,23.22
			c2.64,8.07,4.55,16.47,5.43,25.14c0.86,8.66,0.64,17.63-1.34,26.51c-1.02,4.42-2.47,8.79-4.4,12.98c-1.98,4.16-4.4,8.16-7.3,11.76
			c-2.91,3.59-6.19,6.86-9.81,9.62c-3.61,2.77-7.49,5.07-11.48,7l-3.02,1.37l-3.07,1.18c-2.04,0.8-4.13,1.4-6.2,2.02
			c-4.18,1.11-8.37,2-12.59,2.51c-8.42,1.06-16.83,1.13-25.12,0.13c8.06-2.13,15.95-4.26,23.47-7.02l2.81-1.02l2.75-1.13
			c1.85-0.71,3.61-1.57,5.4-2.36c3.49-1.73,6.92-3.5,10.07-5.6c3.16-2.08,6.11-4.35,8.81-6.82c2.64-2.53,5.06-5.21,7.1-8.15
			c2.05-2.93,3.83-6.03,5.21-9.34c1.44-3.28,2.54-6.74,3.32-10.31c0.84-3.56,1.35-7.25,1.61-11c0.31-3.75,0.3-7.56,0.18-11.39
			c-0.28-7.68-1.32-15.47-2.76-23.27C1222.8,660.73,1218.21,645.17,1213.06,629.38z"/>
		<path class="st24" d="M1204.96,644.35c1.59,4.4,2.62,9.03,3.29,13.7c0.67,4.68,0.99,9.44,0.93,14.22
			c-0.12,9.56-1.78,19.23-5,28.51c-3.2,9.29-8.24,18.05-14.61,25.71c-1.65,1.86-3.3,3.73-5.02,5.53l-5.47,5.08
			c-1.92,1.57-3.92,3.03-5.88,4.55c-0.97,0.79-2.02,1.43-3.06,2.09l-3.12,2c-8.45,5.03-17.41,9.16-26.7,11.78l-3.46,1.07
			c-1.16,0.3-2.34,0.56-3.5,0.84c-2.33,0.56-4.68,1.07-7.01,1.59c-4.7,0.81-9.42,1.55-14.13,2.06c-18.89,1.81-37.75,0.78-56.03-2.95
			c18.53-2.31,36.7-4.36,54.25-8.23c2.21-0.4,4.35-1.08,6.52-1.6c2.16-0.56,4.35-1.02,6.48-1.64c2.12-0.67,4.22-1.34,6.34-1.97
			l3.17-0.96l3.08-1.17c2.04-0.8,4.13-1.49,6.15-2.3l5.94-2.69c2.03-0.8,3.87-1.92,5.79-2.91l2.86-1.52
			c0.97-0.48,1.82-1.14,2.73-1.69c14.74-8.77,26.71-21.42,34.25-37C1201.32,680.89,1204.93,662.93,1204.96,644.35z"/>
		<path class="st24" d="M1165.09,680.83c-2.97,3.07-6.19,5.89-9.51,8.55c-3.33,2.67-6.77,5.21-10.3,7.6
			c-7.06,4.81-14.48,9.11-22.13,12.95c-15.33,7.65-31.67,13.42-48.51,17.15c-4.23,0.83-8.45,1.73-12.72,2.33
			c-4.26,0.66-8.56,1.12-12.85,1.53c-2.15,0.17-4.31,0.27-6.46,0.4l-3.23,0.17l-3.24,0.02c-2.16,0-4.31,0.06-6.46,0.01l-6.46-0.3
			c-2.15-0.05-4.29-0.32-6.43-0.52c-2.14-0.24-4.28-0.37-6.41-0.72c-4.25-0.66-8.49-1.28-12.67-2.28
			c-8.38-1.77-16.54-4.44-24.38-7.74c17.02,0.75,33.5,1.15,49.86-0.06c8.17-0.51,16.28-1.47,24.34-2.56
			c4.02-0.65,8.06-1.18,12.05-1.99c4.02-0.64,8-1.54,11.98-2.37c15.91-3.51,31.63-8.03,47.17-13.47
			C1134.29,694.1,1149.63,687.87,1165.09,680.83z"/>
		<path class="st9" d="M1804.29,1816.9c-3.56,2.79-7.49,5.12-11.52,7.25c-4.04,2.12-8.24,3.96-12.52,5.62
			c-4.31,1.57-8.69,3.04-13.16,4.17c-2.22,0.65-4.49,1.06-6.75,1.6c-2.27,0.47-4.55,0.85-6.84,1.27c-2.18,0.41-4.28-1.03-4.69-3.21
			c-0.41-2.18,1.03-4.28,3.21-4.69c0.19-0.04,0.38-0.06,0.56-0.06l0.22-0.01c2.19-0.08,4.39-0.11,6.59-0.24
			c2.19-0.19,4.41-0.26,6.59-0.56c4.4-0.43,8.76-1.21,13.12-2.1c4.33-0.97,8.64-2.15,12.87-3.62
			C1796.19,1820.83,1800.36,1819.13,1804.29,1816.9z"/>
		<path class="st9" d="M1838.26,1775.54c-6.07,3.92-12.37,7.51-18.78,10.91c-6.42,3.38-12.98,6.52-19.67,9.4
			c-6.69,2.89-13.57,5.38-20.59,7.59c-7.03,2.15-14.26,3.8-21.66,4.96c-2.19,0.34-4.23-1.16-4.57-3.34
			c-0.34-2.19,1.16-4.23,3.34-4.57c0.12-0.02,0.24-0.03,0.36-0.04l0.11-0.01c6.96-0.44,13.97-1.36,20.92-2.8
			c6.94-1.51,13.86-3.31,20.68-5.53c6.82-2.22,13.57-4.71,20.22-7.47C1825.27,1781.86,1831.85,1778.88,1838.26,1775.54z"/>
		<path class="st9" d="M1836.67,1749.04c-6.25,4.5-12.86,8.53-19.63,12.26c-6.79,3.7-13.8,7.06-21.05,9.94
			c-7.28,2.8-14.78,5.13-22.54,6.75c-7.79,1.44-15.82,2.1-23.98,1.52c-2.21-0.16-3.87-2.08-3.71-4.28c0.16-2.21,2.08-3.87,4.28-3.71
			c0.11,0.01,0.22,0.02,0.33,0.04l0.14,0.02c7.16,1.13,14.58,1.2,22.03,0.48c7.43-0.89,14.84-2.49,22.15-4.6
			c7.28-2.19,14.45-4.88,21.47-7.95C1823.16,1756.4,1830.06,1752.98,1836.67,1749.04z"/>
		<g>
			<path class="st7" d="M3004.55,2087.69c-0.36-3.73,2.22-7.15,5.98-7.78c3.92-0.66,7.63,1.98,8.29,5.9l0,0
				c0.05,0.32,5.74,32.43,28.39,62.9c30.01,40.35,74.37,59.05,131.87,55.57c3.97-0.24,7.4,2.74,7.62,6.75
				c0.24,3.97-2.78,7.38-6.75,7.62c-78.34,4.74-121.9-31.02-144.65-61.84c-24.51-33.22-30.43-67.18-30.67-68.61
				C3004.59,2088.03,3004.57,2087.86,3004.55,2087.69z"/>
		</g>
		<path class="st11" d="M2719.14,1785.47c-0.38-0.21-0.77-0.42-1.14-0.61c-11.82-6.32-20.96-10.77-28.74-14.29
			c-7.78-3.52-14.19-6.11-20.61-8.7l-0.19-0.08c-0.43-0.18-0.75-0.56-0.85-1.02c-0.1-0.46,0.05-0.94,0.38-1.28
			c3.6-3.57,7.14-7.1,10.27-10.9c3.15-3.81,5.89-7.9,7.89-12.59c2-4.72,3.26-10.1,4.14-15.82c0.9-5.71,1.42-11.81,1.95-17.97
			c0.03-0.42,0.26-0.78,0.59-1.02c0.35-0.24,0.78-0.32,1.18-0.21l24.24,6.82c7.62,2.03,15.23,4.06,23.15,6.11
			C2745.41,1733.04,2745.3,1761.94,2719.14,1785.47z"/>
		<path class="st11" d="M2394.18,1833.65c-7.95-3.12-14.37-5.82-19.94-8.29c-7.38-3.26-13.22-6.11-19.04-8.98
			c-0.58-0.29-0.9-0.93-0.75-1.57c2.32-10.22,4.58-20.26,4.58-29.39v-0.38c-0.02-4.58-0.62-8.96-1.54-13.25
			c-0.9-4.29-2.1-8.51-3.33-12.77l-0.05-0.14c-0.13-0.45-0.03-0.91,0.26-1.28c0.29-0.35,0.74-0.54,1.2-0.51h0.02
			c15.07,1.01,30.13,2.03,45.26,2.91C2403.5,1780.16,2405.06,1811.39,2394.18,1833.65z"/>
		<path class="st10" d="M3059.94,1808.91c5.55-1.93,11.02-1.92,16.35-1.24c5.32,0.77,10.52,2.45,15.36,5.17
			c2.42,1.37,4.74,2.98,6.89,4.9c2.13,1.95,4.09,4.18,5.66,6.74c1.57,2.54,2.74,5.45,3.17,8.46c0.41,3.01,0.14,6.09-1.19,8.72
			c-3.56-4.7-6.83-7.26-10.42-9.64c-3.54-2.35-7.28-4.42-11.17-6.64c-3.91-2.19-7.94-4.49-12.07-7.08
			C3068.39,1815.66,3064.21,1812.87,3059.94,1808.91z"/>
		<path class="st10" d="M3061.2,1803.27c0.81-3.23,2.34-6.06,4.07-8.74c1.76-2.65,3.86-5.06,6.2-7.25
			c4.68-4.35,10.46-7.77,16.93-9.62c6.43-1.88,13.63-2.03,20.11,0.01c0.82,0.21,1.61,0.51,2.38,0.85c0.78,0.33,1.56,0.63,2.3,1.01
			c1.47,0.81,2.92,1.59,4.23,2.62c2.66,1.93,4.91,4.36,6.61,7.16c-6.58-0.42-11.99-0.88-17.12-0.43c-1.27,0.06-2.52,0.24-3.75,0.35
			c-1.23,0.22-2.44,0.33-3.65,0.59c-2.41,0.43-4.78,0.98-7.17,1.68c-4.77,1.37-9.62,3.14-14.69,5.21
			C3072.54,1798.75,3067.33,1801.04,3061.2,1803.27z"/>
		
			<ellipse transform="matrix(0.9239 -0.3827 0.3827 0.9239 -466.2821 1212.9657)" class="st11" cx="2815.85" cy="1778.56" rx="10.6" ry="10.6"/>
		
			<ellipse transform="matrix(0.1602 -0.9871 0.9871 0.1602 590.6631 4230.1646)" class="st11" cx="2781.31" cy="1767.96" rx="10.6" ry="10.6"/>
		<path class="st11" d="M3316.9,2570.24c-62.64,65.25-179.98,146.3-365.09,123.52c-185.39-22.82-271.76-110.08-310.66-173.25
			c3.47-7.65,6.94-15.5,10.43-23.63c2.75-6.42,5.5-12.99,8.27-19.79c46.29,70.16,137.79,151.97,316.14,171.23
			c183.71,19.84,280.74-45.07,330.42-105.52C3309.94,2553.07,3313.42,2562.1,3316.9,2570.24z"/>
		<path class="st11" d="M3289.71,2484.46c-67.23,57.98-176.4,115.39-335.84,95.78c-149.12-18.35-234.16-78.4-281.98-134.06
			c5.49-14.77,11.02-30.53,16.56-47.58c52.02,60.22,140.43,120.1,289.62,136.21c156.51,16.91,250.1-27.7,305.1-78.66
			C3285.33,2466.03,3287.52,2475.5,3289.71,2484.46z"/>
		<g>
			<path class="st9" d="M3137.96,1265.71c-0.47,0-0.93-0.06-1.4-0.18c-1.87-0.48-3.37-1.9-3.95-3.75
				c-3.5-11.15-2.79-20.5,2.11-27.79c7.64-11.37,22.57-12.73,23.2-12.78c3.12-0.24,5.79,2.04,6.04,5.12
				c0.25,3.08-2.03,5.78-5.1,6.04c-0.2,0.02-10.32,1.06-14.88,7.92c-1.78,2.67-2.55,6.03-2.3,10.02c3.8-2.29,8.59-4.36,13.36-4.21
				c3.99,0.12,7.53,1.72,10.24,4.64c2.11,2.26,1.98,5.81-0.29,7.91c-2.26,2.11-5.81,1.98-7.91-0.29c-0.68-0.73-1.37-1.04-2.37-1.07
				c-0.05,0-0.11,0-0.16,0c-4.19,0-10.36,4.6-12.73,6.86C3140.78,1265.16,3139.39,1265.71,3137.96,1265.71z"/>
		</g>
		<circle class="st5" cx="3048.39" cy="1217.68" r="10.98"/>
		<circle class="st5" cx="2958.53" cy="1202.13" r="10.98"/>
		<path class="st5" d="M3081.7,1202.13c0,0-16.51-15.91-38.4-14.78l1.74-9.34c0.57-3.06,3.73-4.91,6.66-3.87
			C3062.17,1177.81,3083.44,1187.18,3081.7,1202.13z"/>
		<path class="st5" d="M2934.43,1186.04c0,0,18.27-13.86,39.87-10.16l-0.63-9.48c-0.21-3.11-3.12-5.31-6.16-4.63
			C2956.69,1164.19,2934.46,1170.99,2934.43,1186.04z"/>
		<path class="st9" d="M2531.2,1694.15c2.73,2.49,5.65,4.76,8.63,6.89c3,2.12,6.1,4.07,9.28,5.82c3.19,1.74,6.48,3.21,9.82,4.44
			c3.35,1.18,6.77,1.97,10.15,2.42l0.1,0.01c1.76,0.23,3,1.84,2.77,3.6c-0.23,1.76-1.84,3-3.6,2.77c-0.15-0.02-0.31-0.05-0.45-0.09
			c-3.85-1.08-7.49-2.52-10.9-4.31c-3.38-1.83-6.6-3.87-9.61-6.14c-3.01-2.28-5.86-4.71-8.56-7.28
			C2536.12,1699.7,2533.55,1697.01,2531.2,1694.15z"/>
		<path class="st9" d="M2193.32,1831.51c4.47,0.6,8.96,0.98,13.44,1.25c4.48,0.26,8.97,0.38,13.42,0.26
			c4.45-0.12,8.9-0.38,13.21-1.09c4.3-0.69,8.54-1.69,12.21-3.39l0.03-0.01c1.61-0.75,3.51-0.05,4.26,1.56
			c0.75,1.61,0.05,3.51-1.56,4.26c-0.11,0.05-0.25,0.1-0.36,0.14c-4.76,1.54-9.48,2.02-14.12,2.22c-4.65,0.2-9.23-0.08-13.77-0.49
			c-4.54-0.42-9.04-1.07-13.49-1.86C2202.12,1833.54,2197.69,1832.63,2193.32,1831.51z"/>
		<path class="st9" d="M2190.78,1813.12c8.93,0.24,17.86,0.11,26.7-0.55c4.41-0.35,8.81-0.83,13.05-1.67
			c2.11-0.42,4.19-0.93,6.1-1.61c1.88-0.65,3.68-1.64,4.44-2.53c1.14-1.36,3.16-1.54,4.53-0.4c1.36,1.14,1.54,3.16,0.4,4.53
			c-0.12,0.14-0.24,0.27-0.38,0.38l-0.02,0.02c-2.55,2.15-5.05,2.8-7.42,3.39c-2.38,0.54-4.7,0.8-7.01,0.99
			c-4.6,0.35-9.13,0.3-13.64,0.11C2208.53,1815.37,2199.62,1814.43,2190.78,1813.12z"/>
		<path class="st9" d="M2166.36,1791.43c5.39,1.19,10.81,2.19,16.25,3.06c5.43,0.86,10.89,1.58,16.34,2.04
			c5.44,0.46,10.91,0.71,16.24,0.39c2.65-0.17,5.28-0.48,7.71-1.09c2.41-0.59,4.67-1.58,5.88-2.83l0.03-0.03
			c1.24-1.27,3.27-1.29,4.54-0.05c1.27,1.24,1.29,3.27,0.05,4.54c-0.09,0.09-0.2,0.19-0.29,0.26c-2.99,2.39-6.18,3.13-9.14,3.6
			c-2.98,0.44-5.88,0.48-8.73,0.39c-5.7-0.21-11.24-1.01-16.72-2.02c-5.48-1.01-10.88-2.26-16.24-3.65
			C2176.93,1794.66,2171.62,1793.13,2166.36,1791.43z"/>
		<path class="st24" d="M3062.11,1085.9c-5.87,5.09-11.04,10.85-14.88,18.02c-2.05,3.84-3.73,8.06-5.12,12.61
			c-31.12-3.5-66.96-16.98-101.98-51.14c4.14-6.1,8.93-11.73,14.21-17.09c5.54-5.62,11.66-10.94,18.69-15.71
			c2.22-1.5,4.53-2.96,6.94-4.32C2997.71,1046.56,3025.86,1070.69,3062.11,1085.9z"/>
		<path class="st24" d="M3132.67,1100.54c0,0-27.89,15.71-68.03,16.9c0.82-7.12,2.53-14.5,4.74-22c0.58-1.98,1.2-3.97,1.84-5.97
			C3089.84,1096.26,3110.43,1100.54,3132.67,1100.54z"/>
		<path class="st24" d="M3187.97,1011.28c3.68,0.44,7.3,1.25,10.87,2.25c3.58,0.97,7.08,2.19,10.56,3.52
			c6.92,2.71,13.62,6.05,20.02,9.97c12.75,7.87,24.39,18.01,33.55,30.28c4.54,6.15,8.56,12.71,11.77,19.67
			c0.79,1.74,1.48,3.53,2.22,5.3c0.35,0.89,0.75,1.76,1.05,2.66l0.88,2.73c0.55,1.83,1.24,3.61,1.67,5.47l1.31,5.56
			c1.42,7.46,2.31,15,2,22.49c-0.11,7.48-1.28,14.87-3.15,22c-2.19-14.6-4.95-28.45-9.74-41.41c-2.39-6.48-5.26-12.68-8.46-18.69
			c-0.88-1.46-1.69-2.96-2.53-4.43c-0.82-1.49-1.82-2.88-2.71-4.32l-1.36-2.16l-1.47-2.09c-0.99-1.38-1.91-2.82-2.99-4.14
			c-8.14-10.93-17.9-20.74-28.6-29.74C3212.11,1027.19,3200.49,1019.01,3187.97,1011.28z"/>
		<path class="st24" d="M3238.66,1228.66c-2.51,12.69-5.16,24.88-7.37,37.06c-2.21,12.16-4.08,24.23-4.96,36.24
			c-0.49,6-0.71,12-0.57,17.95c0.13,5.95,0.48,11.9,1.41,17.77c0.91,5.87,2.2,11.72,4.08,17.5c1.93,5.77,4.46,11.41,7.39,17.23
			c-5.3-3.74-9.88-8.6-13.72-14.06c-3.76-5.51-6.61-11.65-8.76-18l-1.47-4.82l-1.1-4.9c-0.41-1.64-0.6-3.29-0.86-4.94l-0.37-2.48
			l-0.25-2.48c-0.38-3.32-0.43-6.64-0.54-9.96c0.07-3.31,0.11-6.62,0.38-9.9c0.98-13.16,4.02-25.96,8.43-38.14
			c2.24-6.08,4.83-12.01,7.83-17.73C3231.26,1239.31,3234.57,1233.73,3238.66,1228.66z"/>
		<path class="st24" d="M2964.51,1411.64c-9.68,7.8-19.1,15.15-28.24,22.74c-9.16,7.53-17.94,15.28-26.27,23.39
			c-8.28,8.15-16.07,16.67-23.08,25.93c-3.56,4.6-6.75,9.47-9.93,14.47c-3.15,5.03-5.9,10.34-8.89,15.85
			c-0.08-6.23,0.77-12.51,2.37-18.61c1.67-6.07,3.92-12.05,6.83-17.68c5.78-11.31,13.65-21.46,22.63-30.25
			c9.03-8.77,19.13-16.29,29.96-22.4c5.42-3.05,11.01-5.77,16.77-8.08C2952.44,1414.73,2958.34,1412.73,2964.51,1411.64z"/>
		<path class="st24" d="M3156.41,1331.28c-4.28,6.15-7.86,12.49-11.08,18.94c-3.21,6.45-6.05,12.99-8.45,19.67
			c-4.89,13.31-8.11,27.04-10.11,40.98l-0.7,5.24c-0.22,1.75-0.33,3.51-0.51,5.27c-0.46,3.51-0.5,7.05-0.82,10.59
			c-0.27,7.09-0.51,14.22-0.3,21.4c0.19,14.38,1.43,28.87,2.47,43.84c-6.87-13.37-11.25-27.88-13.75-42.81l-0.87-5.62l-0.57-5.66
			l-0.28-2.84c-0.07-0.95-0.09-1.9-0.13-2.85l-0.23-5.71c-0.02-7.62,0.35-15.28,1.44-22.88c0.24-1.9,0.64-3.78,0.96-5.67l0.51-2.83
			l0.64-2.81c0.85-3.74,1.87-7.45,3.01-11.12c2.33-7.32,5.33-14.43,8.97-21.18c3.63-6.75,7.93-13.12,12.87-18.92
			c2.48-2.89,5.08-5.66,7.91-8.2C3150.18,1335.58,3153.17,1333.21,3156.41,1331.28z"/>
		<g>
			<path class="st25" d="M2111.73,2761.35c0,0-11.37,0.03-0.25-47.69c11.12-47.72-50.85-62.2-50.85-62.2s25.87,51.02,14.13,59.55
				s-23.52-34.52-30.64-59.72c-6.18-21.86-83.98-2.57-83.98-2.57s34.24,21.6,37.3,42.37c3.06,20.77-53.62-21.3-62.76-32.11
				c-9.53-11.29-62,24.98-62,24.98s12.72,69.22,24.09,69.19c11.37-0.03,59.29-27.94,65.49-21.97c6.2,5.97-4.36,14.28-42.46,36.45
				c0,0,60.21,56.27,82.12,26.84c23.14-31.07,42.24-42.52,29.62-17.5c-11.53,22.85-22.12,29.19-30.23,34.18
				c-3.42,2.1,79.35,23.67,94.39-31.83c2.15-7.93,7.7-14.5,15.29-17.66L2111.73,2761.35z"/>
			<g>
				<path class="st25" d="M2154.86,2881.55l-16.41-2.28l8.2,1.14l-8.21-1.13c0.11-0.78,10.01-78.88-46.43-123.91l10.33-12.95
					C2166.28,2793.42,2155.35,2877.98,2154.86,2881.55z"/>
			</g>
			<path class="st25" d="M2286.53,2703.73c0,0,14.83-5.93-24.72-62.28c-39.55-56.35,33.61-107.76,33.61-107.76
				s-6.92,80.08,12.85,85.02c19.77,4.94,12.52-57.34,8.57-93.92c-3.43-31.73,108.09-47.45,108.09-47.45s-33.28,46.14-26.36,74.81
				c6.92,28.67,58.7-55.92,64.92-74.81c6.49-19.72,93.92,0,93.92,0s19.77,96.89,4.94,102.82s-91.94-5.27-96.89,5.77
				c-4.94,11.04,13.18,16.31,74.48,25.21c0,0-48.91,104.95-92.93,78.1c-46.47-28.34-77.37-33.23-47.78-7.25
				c27.02,23.73,44.16,26.43,57.34,28.67c5.56,0.94-90.98,72.51-139.72,8.09c-6.97-9.21-17.65-14.86-29.2-14.99L2286.53,2703.73z"/>
			<g>
				<path class="st25" d="M2247.06,2868.23c-0.37-1.08-9.06-26.77-7.53-62.13c1.42-32.75,12.27-80.26,55.87-120.65l11.26,12.16
					c-31.53,29.2-48.53,65.74-50.55,108.59c-1.52,32.36,6.54,56.41,6.62,56.65L2247.06,2868.23z"/>
			</g>
			<path class="st3" d="M2168.93,2657.2c0,0-19.88-7.95,33.14-83.5c53.02-75.55-45.06-144.47-45.06-144.47s9.28,107.36-17.23,113.98
				s-16.79-76.87-11.49-125.91c4.6-42.54-144.91-63.62-144.91-63.62s44.62,61.85,35.34,100.29c-9.28,38.44-78.7-74.96-87.03-100.29
				c-8.7-26.44-125.91,0-125.91,0s-26.51,129.89-6.63,137.84c19.88,7.95,123.26-7.07,129.89,7.73c6.63,14.8-17.67,21.87-99.85,33.8
				c0,0,65.57,140.7,124.59,104.71c62.29-37.99,103.72-44.55,64.06-9.72c-36.23,31.81-59.2,35.43-76.87,38.44
				c-7.45,1.27,121.97,97.21,187.32,10.84c9.34-12.35,23.66-19.92,39.14-20.1L2168.93,2657.2z"/>
			<g>
				<path class="st3" d="M2219.73,2877.38l-15.67-5.39l7.83,2.7l-7.84-2.69c0.11-0.32,11.05-32.9,9.03-76.77
					c-2.68-58.31-25.79-108.01-68.68-147.73l11.26-12.16c57.75,53.49,72.12,116.42,74,159.8
					C2231.71,2842,2220.22,2875.96,2219.73,2877.38z"/>
			</g>
			<g>
				<path class="st26" d="M2301.03,2839.39v115.31c0,37.81-30.65,68.48-68.48,68.48h-64.04c-37.61-0.22-68.06-30.82-68.06-68.48
					v-115.31H2301.03z"/>
				<path class="st27" d="M2203.87,3023.18c-21.21-12.87-35.38-36.17-35.38-62.81v-120.98h-35.34v120.98
					c0,26.62,14.17,49.92,35.36,62.81H2203.87z"/>
			</g>
		</g>
		<rect x="1961.66" y="3046.85" class="st3" width="502.85" height="114.05"/>
		<rect x="1961.66" y="3197.18" class="st3" width="502.85" height="241.62"/>
		<rect x="2086.66" y="3093.5" class="st17" width="243.07" height="16.13"/>
		<rect x="2464.51" y="843.65" class="st1" width="316.8" height="101.92"/>
		<rect x="2864.38" y="653.19" class="st1" width="316.8" height="101.92"/>
	</g>
</g>
</svg>
